<svg width="64" height="64" viewBox="0 0 64 64" fill="none" xmlns="http://www.w3.org/2000/svg">
<g clip-path="url(#clip0_570_112)">
<path d="M46.6667 22.96C46.1547 22.96 45.6613 22.6613 45.4427 22.1573C45.152 21.4827 45.4587 20.6987 46.136 20.4027L59.3227 14.6667L32 2.78667L4.67733 14.6667L17.864 20.4027C18.5413 20.696 18.848 21.4827 18.5573 22.1573C18.264 22.8347 17.472 23.144 16.8027 22.848L0.802667 15.888C0.314667 15.6773 0 15.1973 0 14.6667C0 14.136 0.314667 13.656 0.802667 13.4453L31.4693 0.112C31.808 -0.0373333 32.192 -0.0373333 32.5307 0.112L63.1973 13.4453C63.6853 13.656 64 14.136 64 14.6667C64 15.1973 63.6853 15.6773 63.1973 15.888L47.1973 22.848C47.0267 22.9253 46.8427 22.96 46.6667 22.96Z" fill="gray"/>
<path d="M32 64C31.8187 64 31.6373 63.9627 31.4693 63.888L0.802667 50.5547C0.314667 50.344 0 49.864 0 49.3333V14.6666C0 13.9306 0.597333 13.3333 1.33333 13.3333C2.06933 13.3333 2.66667 13.9306 2.66667 14.6666V48.4587L32 61.2107L61.3333 48.4587V14.6666C61.3333 13.9306 61.9307 13.3333 62.6667 13.3333C63.4027 13.3333 64 13.9306 64 14.6666V49.3333C64 49.864 63.6853 50.344 63.1973 50.5547L32.5307 63.888C32.3627 63.9627 32.1813 64 32 64Z" fill="gray"/>
<path d="M32.0003 64C31.2643 64 30.667 63.4027 30.667 62.6667V44C30.667 43.264 31.2643 42.6667 32.0003 42.6667C32.7363 42.6667 33.3336 43.264 33.3336 44V62.6667C33.3336 63.4027 32.7363 64 32.0003 64Z" fill="gray"/>
<path d="M32 45.3333C31.8133 45.3333 31.6213 45.2933 31.448 45.2133L16.7813 38.5466C16.304 38.3306 16 37.856 16 37.3333C16 36.8106 16.304 36.336 16.7813 36.12L31.448 29.4533C31.7973 29.2933 32.2027 29.2933 32.552 29.4533L47.2187 36.12C47.696 36.336 48 36.8106 48 37.3333C48 37.856 47.696 38.3306 47.2187 38.5466L32.552 45.2133C32.3787 45.2933 32.1867 45.3333 32 45.3333ZM20.5547 37.3333L32 42.536L43.4453 37.3333L32 32.1306L20.5547 37.3333Z" fill="gray"/>
<path d="M46.6667 38.6666C45.9307 38.6666 45.3333 38.0693 45.3333 37.3333V22.192L32 16.1333L18.6667 22.192V37.3333C18.6667 38.0693 18.0693 38.6666 17.3333 38.6666C16.5973 38.6666 16 38.0693 16 37.3333V21.3333C16 20.8106 16.304 20.336 16.7813 20.12L31.448 13.4533C31.7973 13.2933 32.2027 13.2933 32.552 13.4533L47.2187 20.12C47.696 20.336 48 20.8106 48 21.3333V37.3333C48 38.0693 47.4027 38.6666 46.6667 38.6666Z" fill="gray"/>
<path d="M32.0003 32C31.2643 32 30.667 31.4027 30.667 30.6667V14.6666C30.667 13.9306 31.2643 13.3333 32.0003 13.3333C32.7363 13.3333 33.3336 13.9306 33.3336 14.6666V30.6667C33.3336 31.4027 32.7363 32 32.0003 32Z" fill="gray"/>
</g>
<defs>
<clipPath id="clip0_570_112">
<rect width="64" height="64" fill="white"/>
</clipPath>
</defs>
</svg>
