<svg width="16" height="22" viewBox="0 0 16 22" fill="none" xmlns="http://www.w3.org/2000/svg">
<path d="M8 16.485L12.243 12.243C13.082 11.4038 13.6534 10.3347 13.8848 9.17084C14.1162 8.00698 13.9973 6.80063 13.5432 5.70434C13.089 4.60804 12.32 3.67103 11.3333 3.01178C10.3466 2.35254 9.18665 2.00067 8 2.00067C6.81336 2.00067 5.65336 2.35254 4.66669 3.01178C3.68002 3.67103 2.91098 4.60804 2.45682 5.70434C2.00267 6.80063 1.88379 8.00698 2.11522 9.17084C2.34665 10.3347 2.91799 11.4038 3.757 12.243L8 16.485ZM13.657 13.657L8 19.314L2.343 13.657C1.22422 12.5381 0.46234 11.1127 0.153691 9.56081C-0.154957 8.00898 0.00349361 6.40047 0.609007 4.93868C1.21452 3.4769 2.2399 2.22749 3.55548 1.34846C4.87107 0.469425 6.41777 0.000244141 8 0.000244141C9.58224 0.000244141 11.1289 0.469425 12.4445 1.34846C13.7601 2.22749 14.7855 3.4769 15.391 4.93868C15.9965 6.40047 16.155 8.00898 15.8463 9.56081C15.5377 11.1127 14.7758 12.5381 13.657 13.657ZM1 20H15V22H1V20Z" fill="black"/>
</svg>
