<svg width="14" height="14" viewBox="0 0 14 14" fill="none" xmlns="http://www.w3.org/2000/svg">
<path d="M6.9987 13.6663C3.3167 13.6663 0.332031 10.6817 0.332031 6.99967C0.332031 3.31767 3.3167 0.333008 6.9987 0.333008C10.6807 0.333008 13.6654 3.31767 13.6654 6.99967C13.6654 10.6817 10.6807 13.6663 6.9987 13.6663ZM6.9987 12.333C8.41319 12.333 9.76974 11.7711 10.7699 10.7709C11.7701 9.77072 12.332 8.41416 12.332 6.99967C12.332 5.58519 11.7701 4.22863 10.7699 3.22844C9.76974 2.22824 8.41319 1.66634 6.9987 1.66634C5.58421 1.66634 4.22766 2.22824 3.22746 3.22844C2.22727 4.22863 1.66536 5.58519 1.66536 6.99967C1.66536 8.41416 2.22727 9.77072 3.22746 10.7709C4.22766 11.7711 5.58421 12.333 6.9987 12.333ZM6.9987 6.05701L8.88403 4.17101L9.82736 5.11434L7.94136 6.99967L9.82736 8.88501L8.88403 9.82834L6.9987 7.94234L5.11336 9.82834L4.17003 8.88501L6.05603 6.99967L4.17003 5.11434L5.11336 4.17101L6.9987 6.05701Z" fill="black"/>
</svg>
