<svg width="34" height="34" viewBox="0 0 34 34" fill="none" xmlns="http://www.w3.org/2000/svg">
<path d="M17.0007 33.6668C7.79565 33.6668 0.333984 26.2052 0.333984 17.0002C0.333984 7.79516 7.79565 0.333496 17.0007 0.333496C26.2057 0.333496 33.6673 7.79516 33.6673 17.0002C33.6673 26.2052 26.2057 33.6668 17.0007 33.6668ZM17.0007 30.3335C20.5369 30.3335 23.9283 28.9287 26.4287 26.4283C28.9292 23.9278 30.334 20.5364 30.334 17.0002C30.334 13.4639 28.9292 10.0726 26.4287 7.57207C23.9283 5.07159 20.5369 3.66683 17.0007 3.66683C13.4644 3.66683 10.073 5.07159 7.57256 7.57207C5.07208 10.0726 3.66732 13.4639 3.66732 17.0002C3.66732 20.5364 5.07208 23.9278 7.57256 26.4283C10.073 28.9287 13.4644 30.3335 17.0007 30.3335ZM17.0007 14.6435L21.714 9.9285L24.0723 12.2868L19.3573 17.0002L24.0723 21.7135L21.714 24.0718L17.0007 19.3568L12.2873 24.0718L9.92898 21.7135L14.644 17.0002L9.92898 12.2868L12.2873 9.9285L17.0007 14.6435Z" fill="#1A1A1A"/>
</svg>
