<svg width="24" height="19" viewBox="0 0 24 19" fill="none" xmlns="http://www.w3.org/2000/svg">
<g clip-path="url(#clip0_4292_1179)">
<path d="M2.66666 17.6666C2.66666 16.2521 3.22857 14.8956 4.22876 13.8954C5.22896 12.8952 6.58551 12.3333 8 12.3333C9.41448 12.3333 10.771 12.8952 11.7712 13.8954C12.7714 14.8956 13.3333 16.2521 13.3333 17.6666H12C12 16.6058 11.5786 15.5883 10.8284 14.8382C10.0783 14.0881 9.06086 13.6666 8 13.6666C6.93913 13.6666 5.92172 14.0881 5.17157 14.8382C4.42142 15.5883 4 16.6058 4 17.6666H2.66666ZM8 11.6666C5.79 11.6666 4 9.87663 4 7.66663C4 5.45663 5.79 3.66663 8 3.66663C10.21 3.66663 12 5.45663 12 7.66663C12 9.87663 10.21 11.6666 8 11.6666ZM8 10.3333C9.47333 10.3333 10.6667 9.13996 10.6667 7.66663C10.6667 6.19329 9.47333 4.99996 8 4.99996C6.52666 4.99996 5.33333 6.19329 5.33333 7.66663C5.33333 9.13996 6.52666 10.3333 8 10.3333Z" fill="#978F8B"/>
</g>
<g clip-path="url(#clip1_4292_1179)">
<path d="M10.6667 14.6666C10.6667 13.2521 11.2286 11.8956 12.2288 10.8954C13.229 9.8952 14.5855 9.33329 16 9.33329C17.4145 9.33329 18.771 9.8952 19.7712 10.8954C20.7714 11.8956 21.3333 13.2521 21.3333 14.6666H20C20 13.6058 19.5786 12.5883 18.8284 11.8382C18.0783 11.0881 17.0609 10.6666 16 10.6666C14.9391 10.6666 13.9217 11.0881 13.1716 11.8382C12.4214 12.5883 12 13.6058 12 14.6666H10.6667ZM16 8.66663C13.79 8.66663 12 6.87663 12 4.66663C12 2.45663 13.79 0.666626 16 0.666626C18.21 0.666626 20 2.45663 20 4.66663C20 6.87663 18.21 8.66663 16 8.66663ZM16 7.33329C17.4733 7.33329 18.6667 6.13996 18.6667 4.66663C18.6667 3.19329 17.4733 1.99996 16 1.99996C14.5267 1.99996 13.3333 3.19329 13.3333 4.66663C13.3333 6.13996 14.5267 7.33329 16 7.33329Z" fill="#978F8B"/>
</g>
<defs>
<clipPath id="clip0_4292_1179">
<rect width="16" height="16" fill="white" transform="translate(0 3)"/>
</clipPath>
<clipPath id="clip1_4292_1179">
<rect width="16" height="16" fill="white" transform="translate(8)"/>
</clipPath>
</defs>
</svg>
