<svg width="279" height="62" viewBox="0 0 279 62" fill="none" xmlns="http://www.w3.org/2000/svg">
<rect x="1.5" y="1.5" width="276" height="59" fill="white"/>
<rect x="1.5" y="1.5" width="276" height="59" stroke="black" stroke-width="3"/>
<path d="M18.4117 41.8L20.1317 41.92C20.5317 41.92 20.7317 41.6267 20.7317 41.04V21.08C20.7317 20.84 20.6517 20.64 20.4917 20.48C20.3584 20.2933 20.1851 20.2133 19.9717 20.24L18.4117 20.32V19.12H27.2117V20.32L25.2517 20.24H25.1717C24.9584 20.24 24.7851 20.32 24.6517 20.48C24.5184 20.64 24.4517 20.84 24.4517 21.08V41.36C24.4517 41.7067 24.6117 41.88 24.9317 41.88H29.4517C31.2917 41.88 32.6784 41.4 33.6117 40.44C34.5717 39.4533 35.0517 38.0267 35.0517 36.16H36.0917V43.12C35.6117 43.04 33.9584 43 31.1317 43H18.4117V41.8ZM42.1986 17.28C42.8386 17.28 43.3586 17.4533 43.7586 17.8C44.1853 18.1467 44.3986 18.6 44.3986 19.16C44.3986 19.7733 44.1986 20.2533 43.7986 20.6C43.3986 20.92 42.8653 21.08 42.1986 21.08C41.5586 21.08 41.0386 20.92 40.6386 20.6C40.2386 20.2533 40.0386 19.7733 40.0386 19.16C40.0386 18.6 40.2386 18.1467 40.6386 17.8C41.0386 17.4533 41.5586 17.28 42.1986 17.28ZM44.1986 41.28C44.1986 41.7867 44.3719 42.04 44.7186 42.04L46.1586 41.96V43H38.7586V41.96L40.2386 42.04C40.5853 42.04 40.7586 41.7867 40.7586 41.28V27.96C40.7586 27.5067 40.5986 27.24 40.2786 27.16L38.7986 27.24V26.2H44.1986V41.28ZM49.9139 37.32L50.9539 37.24C50.9539 38.2267 51.2206 39.1067 51.7539 39.88C52.2872 40.6533 52.9939 41.2533 53.8739 41.68C54.7539 42.1067 55.7139 42.32 56.7539 42.32C57.8206 42.32 58.6472 42.0533 59.2339 41.52C59.8206 40.96 60.1139 40.2133 60.1139 39.28C60.1139 38.5333 59.9006 37.92 59.4739 37.44C59.0472 36.96 58.3272 36.5733 57.3139 36.28L53.4739 35.2C52.4072 34.88 51.5672 34.3467 50.9539 33.6C50.3406 32.8267 50.0339 31.88 50.0339 30.76C50.0339 29.2933 50.5806 28.1067 51.6739 27.2C52.7672 26.2667 54.2606 25.8 56.1539 25.8C56.6872 25.8 57.1539 25.84 57.5539 25.92C57.9806 26 58.5006 26.1333 59.1139 26.32C59.9406 26.56 60.5539 26.68 60.9539 26.68C61.3539 26.68 61.7272 26.5733 62.0739 26.36L61.8339 30.92H60.9539C60.9539 29.8533 60.5272 28.92 59.6739 28.12C58.8472 27.2933 57.7139 26.88 56.2739 26.88C55.2606 26.88 54.4606 27.1467 53.8739 27.68C53.3139 28.2133 53.0339 28.8933 53.0339 29.72C53.0339 31.0267 53.8606 31.9067 55.5139 32.36L59.3539 33.44C60.7139 33.8133 61.6739 34.3733 62.2339 35.12C62.7939 35.84 63.0739 36.7867 63.0739 37.96C63.0739 39.6933 62.4606 41.04 61.2339 42C60.0072 42.9333 58.4072 43.4 56.4339 43.4C55.8739 43.4 55.2872 43.3333 54.6739 43.2C54.0872 43.0933 53.1806 42.8667 51.9539 42.52C51.5539 42.4133 51.1939 42.36 50.8739 42.36C50.3406 42.36 49.9539 42.44 49.7139 42.6L49.9139 37.32ZM71.6392 26.2H76.0392V27.2H71.6392V39.48C71.6392 40.4933 71.7592 41.1867 71.9992 41.56C72.2392 41.9067 72.6659 42.08 73.2792 42.08C73.6792 42.08 74.0926 41.9333 74.5192 41.64C74.9459 41.32 75.2259 40.9333 75.3592 40.48L76.1992 41C75.6659 42.4933 74.2526 43.24 71.9592 43.24C70.5992 43.24 69.6259 42.92 69.0392 42.28C68.4792 41.64 68.1992 40.6 68.1992 39.16V27.2H65.7992V26.2C66.8659 26.2 67.6792 26.1067 68.2392 25.92C68.7992 25.7067 69.2392 25.32 69.5592 24.76C69.9059 24.2 70.2259 23.32 70.5192 22.12H71.6392V26.2ZM106.207 26.2V27.24L104.567 27.16H104.487C104.061 27.16 103.727 27.4133 103.487 27.92L95.0473 48.28C94.4073 49.8533 93.7273 50.96 93.0073 51.6C92.2873 52.24 91.394 52.56 90.3273 52.56C89.6073 52.56 88.994 52.3867 88.4873 52.04C88.0073 51.6933 87.7407 51.2133 87.6873 50.6C87.6873 49.9333 87.834 49.4267 88.1273 49.08C88.4473 48.7333 88.8207 48.56 89.2473 48.56C89.6473 48.56 89.954 48.64 90.1673 48.8C90.3807 48.9867 90.5807 49.2267 90.7673 49.52C90.794 49.5733 90.8607 49.6667 90.9673 49.8C91.074 49.96 91.194 50.0667 91.3273 50.12C91.4607 50.2 91.6073 50.24 91.7673 50.24C92.0873 50.24 92.4073 50.08 92.7273 49.76C93.074 49.4667 93.3673 49.0133 93.6073 48.4L95.9273 42.84L89.0073 27.68C88.8473 27.3333 88.634 27.16 88.3673 27.16L86.4073 27.24V26.2H95.1673V27.24L93.3673 27.16C93.1807 27.16 93.034 27.24 92.9273 27.4C92.8207 27.5333 92.8073 27.68 92.8873 27.84L97.7673 38.56L102.287 27.76C102.314 27.7067 102.327 27.6267 102.327 27.52C102.327 27.28 102.181 27.16 101.887 27.16L100.007 27.24V26.2H106.207ZM107.36 34.56C107.36 31.84 108.04 29.7067 109.4 28.16C110.76 26.5867 112.76 25.8 115.4 25.8C118.04 25.8 120.04 26.5867 121.4 28.16C122.76 29.7067 123.44 31.84 123.44 34.56C123.44 37.3333 122.76 39.5067 121.4 41.08C120.04 42.6267 118.04 43.4 115.4 43.4C112.76 43.4 110.76 42.6267 109.4 41.08C108.04 39.5067 107.36 37.3333 107.36 34.56ZM111 34.64C111 37.3333 111.333 39.2933 112 40.52C112.693 41.72 113.827 42.32 115.4 42.32C116.973 42.32 118.093 41.72 118.76 40.52C119.453 39.2933 119.8 37.3333 119.8 34.64C119.8 31.92 119.453 29.9467 118.76 28.72C118.093 27.4933 116.973 26.88 115.4 26.88C113.827 26.88 112.693 27.4933 112 28.72C111.333 29.9467 111 31.92 111 34.64ZM144.787 41.96V43H139.107C139.241 42.68 139.307 41.72 139.307 40.12V39.6C138.774 40.8267 137.961 41.7733 136.867 42.44C135.801 43.08 134.521 43.4 133.027 43.4C131.241 43.4 129.947 42.9067 129.147 41.92C128.374 40.9333 127.987 39.32 127.987 37.08V27.96C127.987 27.4267 127.814 27.16 127.467 27.16L126.027 27.24V26.2H131.427V37.08C131.427 38.8933 131.587 40.1867 131.907 40.96C132.227 41.7067 132.881 42.08 133.867 42.08C135.387 42.08 136.641 41.5067 137.627 40.36C138.614 39.1867 139.174 37.5867 139.307 35.56L139.347 28C139.347 27.44 139.187 27.16 138.867 27.16L136.987 27.24V26.2H142.827V41.28C142.827 41.7867 143.001 42.04 143.347 42.04L144.787 41.96ZM139.347 34.2V33.96V34.2ZM158.084 25.8C159.124 25.8 159.924 26.0933 160.484 26.68C161.071 27.2667 161.364 28.0133 161.364 28.92C161.364 29.5333 161.204 30 160.884 30.32C160.591 30.64 160.191 30.8 159.684 30.8C159.311 30.8 158.964 30.7067 158.644 30.52C158.351 30.3067 158.204 29.9867 158.204 29.56C158.204 29.32 158.257 29.0133 158.364 28.64C158.471 28.2667 158.524 27.9733 158.524 27.76C158.524 27.5467 158.444 27.36 158.284 27.2C158.151 27.0133 157.924 26.92 157.604 26.92C156.777 26.92 156.057 27.32 155.444 28.12C154.831 28.8933 154.351 29.8667 154.004 31.04C153.657 32.1867 153.457 33.2933 153.404 34.36V41.28C153.404 41.7867 153.577 42.04 153.924 42.04L156.364 41.96V43H148.164V41.96L149.444 42.04C149.791 42.04 149.964 41.7867 149.964 41.28V27.96C149.964 27.4267 149.791 27.16 149.444 27.16L148.004 27.24V26.2H153.644C153.591 26.36 153.537 26.6267 153.484 27C153.431 27.3467 153.404 27.6933 153.404 28.04V30C154.017 28.5067 154.697 27.44 155.444 26.8C156.217 26.1333 157.097 25.8 158.084 25.8ZM191.705 41.96V43H183.905V41.96L185.745 42.04C186.092 41.96 186.265 41.7067 186.265 41.28V32.2C186.265 30.92 186.199 29.9333 186.065 29.24C185.959 28.5467 185.719 28.0133 185.345 27.64C184.972 27.2667 184.385 27.08 183.585 27.08C182.065 27.08 180.825 27.7333 179.865 29.04C178.932 30.32 178.425 32.0533 178.345 34.24V41.28C178.345 41.7867 178.519 42.04 178.865 42.04L180.705 41.96V43H172.905V41.96L174.385 42.04C174.732 41.96 174.905 41.7067 174.905 41.28V15.56C174.905 15 174.732 14.72 174.385 14.72L172.905 14.8V13.8H178.345V29.8C178.905 28.5467 179.705 27.5733 180.745 26.88C181.785 26.16 182.985 25.8 184.345 25.8C186.239 25.8 187.599 26.2533 188.425 27.16C189.279 28.04 189.705 29.48 189.705 31.48V41.28C189.705 41.7867 189.879 42.04 190.225 42.04L191.705 41.96ZM194.321 34.56C194.321 31.84 195.001 29.7067 196.361 28.16C197.721 26.5867 199.721 25.8 202.361 25.8C205.001 25.8 207.001 26.5867 208.361 28.16C209.721 29.7067 210.401 31.84 210.401 34.56C210.401 37.3333 209.721 39.5067 208.361 41.08C207.001 42.6267 205.001 43.4 202.361 43.4C199.721 43.4 197.721 42.6267 196.361 41.08C195.001 39.5067 194.321 37.3333 194.321 34.56ZM197.961 34.64C197.961 37.3333 198.294 39.2933 198.961 40.52C199.654 41.72 200.788 42.32 202.361 42.32C203.934 42.32 205.054 41.72 205.721 40.52C206.414 39.2933 206.761 37.3333 206.761 34.64C206.761 31.92 206.414 29.9467 205.721 28.72C205.054 27.4933 203.934 26.88 202.361 26.88C200.788 26.88 199.654 27.4933 198.961 28.72C198.294 29.9467 197.961 31.92 197.961 34.64ZM243.428 41.96V43H235.628V41.96L237.468 42.04C237.815 41.96 237.988 41.7067 237.988 41.28V32.2C237.988 30.92 237.922 29.9333 237.788 29.24C237.682 28.5467 237.442 28.0133 237.068 27.64C236.695 27.2667 236.108 27.08 235.308 27.08C233.895 27.08 232.708 27.72 231.748 29C230.815 30.28 230.308 31.9733 230.228 34.08V41.28C230.228 41.7867 230.402 42.04 230.748 42.04L232.628 41.96V43H224.428V41.96L226.268 42.04C226.615 41.96 226.788 41.7067 226.788 41.28V32.12C226.788 30.7333 226.708 29.6933 226.548 29C226.415 28.3067 226.148 27.8267 225.748 27.56C225.375 27.2667 224.775 27.12 223.948 27.12C222.588 27.12 221.468 27.7333 220.588 28.96C219.708 30.1867 219.202 31.7867 219.068 33.76L219.028 41.28C219.028 41.7867 219.202 42.04 219.548 42.04L221.388 41.96V43H213.588V41.96L215.068 42.04C215.415 41.96 215.588 41.7067 215.588 41.28V27.96C215.588 27.7467 215.535 27.56 215.428 27.4C215.348 27.24 215.228 27.16 215.068 27.16L213.588 27.24V26.2H219.268C219.135 26.6 219.068 27.0533 219.068 27.56V29.76C219.468 28.5867 220.175 27.64 221.188 26.92C222.202 26.1733 223.428 25.8 224.868 25.8C226.388 25.8 227.575 26.12 228.428 26.76C229.308 27.4 229.868 28.5867 230.108 30.32C230.562 28.8533 231.308 27.7333 232.348 26.96C233.415 26.1867 234.655 25.8 236.068 25.8C237.962 25.8 239.322 26.2533 240.148 27.16C241.002 28.04 241.428 29.48 241.428 31.48V41.28C241.428 41.7867 241.602 42.04 241.948 42.04L243.428 41.96ZM219.028 34.88V35.2V34.88ZM254.06 25.8C256.166 25.8 257.86 26.48 259.14 27.84C260.446 29.1733 261.126 31.0133 261.18 33.36V34.52H249.66C249.66 36.9467 250.073 38.8133 250.9 40.12C251.753 41.4 253.02 42.0533 254.7 42.08C256.033 42.08 257.153 41.7467 258.06 41.08C258.993 40.4133 259.673 39.5867 260.1 38.6L261.02 39.28C260.486 40.56 259.58 41.5733 258.3 42.32C257.046 43.04 255.66 43.4 254.14 43.4C248.726 43.4 246.02 40.48 246.02 34.64C246.02 31.7333 246.7 29.5333 248.06 28.04C249.42 26.5467 251.42 25.8 254.06 25.8ZM254.06 26.88C252.566 26.88 251.46 27.4933 250.74 28.72C250.046 29.9467 249.7 31.5467 249.7 33.52H256.98C257.246 33.52 257.446 33.4267 257.58 33.24C257.713 33.0533 257.78 32.7067 257.78 32.2C257.78 30.3867 257.486 29.0533 256.9 28.2C256.34 27.32 255.393 26.88 254.06 26.88Z" fill="black"/>
</svg>
