<svg width="84" height="23" viewBox="0 0 84 23" fill="none" xmlns="http://www.w3.org/2000/svg">
<path d="M7.65057 0.545454H4.64205L0.303977 3.33239V6.23011L4.38636 3.62216H4.48864V18H7.65057V0.545454ZM18.7741 18.3324C22.9843 18.3409 25.4985 15.017 25.4985 9.28977C25.4985 3.59659 22.9673 0.306818 18.7741 0.306818C14.5809 0.306818 12.0582 3.58807 12.0497 9.28977C12.0497 15.0085 14.5639 18.3324 18.7741 18.3324ZM18.7741 15.6648C16.6008 15.6648 15.2372 13.483 15.2457 9.28977C15.2542 5.13068 16.6093 2.94034 18.7741 2.94034C20.9474 2.94034 22.3025 5.13068 22.311 9.28977C22.311 13.483 20.9559 15.6648 18.7741 15.6648ZM32.3713 18.2642C34.4253 18.2642 35.6526 17.3011 36.2151 16.2017H36.3174V18H39.2833V9.23864C39.2833 5.77841 36.4622 4.73864 33.9651 4.73864C31.2122 4.73864 29.0986 5.96591 28.4168 8.35227L31.2975 8.76136C31.6043 7.86648 32.4736 7.09943 33.9821 7.09943C35.4139 7.09943 36.198 7.83239 36.198 9.11932V9.17045C36.198 10.0568 35.2691 10.0994 32.9594 10.3466C30.4196 10.6193 27.9907 11.3778 27.9907 14.3267C27.9907 16.9006 29.8742 18.2642 32.3713 18.2642ZM33.1725 15.9972C31.8855 15.9972 30.9651 15.4091 30.9651 14.2756C30.9651 13.0909 31.9963 12.5966 33.377 12.4006C34.1867 12.2898 35.806 12.0852 36.2066 11.7614V13.304C36.2066 14.7614 35.0304 15.9972 33.1725 15.9972ZM45.7108 10.3295C45.7108 8.4375 46.8528 7.34659 48.4807 7.34659C50.0744 7.34659 51.029 8.39489 51.029 10.142V18H54.1142V9.66477C54.1227 6.52841 52.3329 4.73864 49.6312 4.73864C47.671 4.73864 46.3244 5.67614 45.7278 7.13352H45.5744V4.90909H42.6255V18H45.7108V10.3295ZM63.2008 18.2557C66.4905 18.2557 68.5871 16.304 68.8087 13.5256H65.8599C65.5957 14.9318 64.5814 15.7415 63.2263 15.7415C61.3002 15.7415 60.0559 14.1307 60.0559 11.4545C60.0559 8.8125 61.3258 7.22727 63.2263 7.22727C64.7093 7.22727 65.6212 8.18182 65.8599 9.44318H68.8087C68.5957 6.60511 66.3797 4.73864 63.1837 4.73864C59.3485 4.73864 56.928 7.50852 56.928 11.5057C56.928 15.4688 59.2888 18.2557 63.2008 18.2557ZM73.4997 22.9091C75.9031 22.9091 77.2923 21.6733 78.0338 19.5852L83.2923 4.92614L79.994 4.90909L76.9685 14.7955H76.8321L73.8151 4.90909H70.5423L75.2895 18.2727L75.0253 18.9801C74.4543 20.4716 73.5508 20.5739 72.2043 20.1818L71.4883 22.5852C71.906 22.7557 72.656 22.9091 73.4997 22.9091Z" fill="#282828"/>
</svg>
