<svg width="707" height="394" viewBox="0 0 707 394" fill="none" xmlns="http://www.w3.org/2000/svg">
<g clip-path="url(#clip0_610_983)">
<path d="M677.331 232.247L612.962 189.752C612.225 189.266 611.382 189.054 610.558 189.087C609.734 189.054 608.891 189.266 608.154 189.752L543.785 232.247C541.911 233.485 541.391 236.029 542.629 237.908C543.867 239.783 546.411 240.303 548.29 239.065L610.558 197.957L672.826 239.065C674.7 240.303 677.249 239.783 678.487 237.908C679.725 236.029 679.205 233.485 677.331 232.247Z" fill="#E3E3E3"/>
<path d="M79.0683 225.883L143.437 183.388C144.174 182.901 145.017 182.689 145.841 182.723C146.665 182.689 147.508 182.901 148.245 183.388L212.614 225.883C214.488 227.121 215.009 229.665 213.77 231.544C212.532 233.418 209.988 233.939 208.109 232.7L145.841 191.593L83.5731 232.7C81.6989 233.939 79.1502 233.418 77.912 231.544C76.6737 229.67 77.1941 227.121 79.0683 225.883Z" fill="#E3E3E3"/>
<path d="M468.07 308.126L421.87 277.624C421.34 277.272 420.738 277.122 420.145 277.147C419.552 277.122 418.95 277.277 418.42 277.624L372.22 308.126C370.876 309.013 370.5 310.844 371.387 312.188C372.273 313.532 374.104 313.908 375.448 313.021L420.145 283.516L464.842 313.021C466.186 313.908 468.017 313.537 468.903 312.188C469.79 310.839 469.414 309.013 468.07 308.126Z" fill="#E3E3E3"/>
<path d="M321.636 88.5794C322.769 81.0296 329.283 75.2432 337.146 75.2432C345.24 75.2432 351.898 81.3717 352.741 89.2443C354.201 88.8011 355.748 88.565 357.347 88.565C366.136 88.565 373.257 95.686 373.257 104.474C373.257 113.262 366.136 120.383 357.347 120.383C349.075 120.383 330.415 120.383 322.345 120.383C313.557 120.383 306.436 113.262 306.436 104.474C306.44 95.9221 313.181 88.9504 321.636 88.5794Z" fill="#E3E3E3"/>
<path d="M474.83 128.901C473.697 121.351 467.183 115.565 459.32 115.565C451.226 115.565 444.568 121.693 443.725 129.566C442.265 129.123 440.718 128.887 439.119 128.887C430.33 128.887 423.209 136.008 423.209 144.796C423.209 153.584 430.33 160.705 439.119 160.705C447.391 160.705 466.051 160.705 474.121 160.705C482.909 160.705 490.03 153.584 490.03 144.796C490.03 136.244 483.29 129.272 474.83 128.901Z" fill="#E3E3E3"/>
<path d="M613.201 57.6623C621.318 49.5454 621.318 36.3852 613.201 28.2683C605.084 20.1514 591.924 20.1514 583.807 28.2683C575.69 36.3853 575.69 49.5454 583.807 57.6623C591.924 65.7793 605.084 65.7793 613.201 57.6623Z" fill="#FDDEC1"/>
<path d="M154.822 76.9294C153.743 69.7458 147.547 64.2388 140.064 64.2388C132.365 64.2388 126.029 70.0686 125.225 77.5606C123.837 77.1414 122.368 76.915 120.84 76.915C112.481 76.915 105.702 83.6939 105.702 92.0532C105.702 100.412 112.481 107.191 120.84 107.191C128.713 107.191 146.467 107.191 154.142 107.191C162.502 107.191 169.281 100.412 169.281 92.0532C169.285 83.9155 162.868 77.2811 154.822 76.9294Z" fill="#E3E3E3"/>
<path d="M462.919 390.616H252.507C251.577 390.616 250.821 391.372 250.821 392.302C250.821 393.232 251.577 393.988 252.507 393.988H462.919C463.849 393.988 464.606 393.232 464.606 392.302C464.606 391.372 463.849 390.616 462.919 390.616Z" fill="#323232"/>
<path d="M229.626 390.616H3.23757C2.3077 390.616 1.55127 391.372 1.55127 392.302C1.55127 393.232 2.3077 393.988 3.23757 393.988H229.626C230.556 393.988 231.313 393.232 231.313 392.302C231.313 391.372 230.561 390.616 229.626 390.616Z" fill="#323232"/>
<path d="M703.781 390.616H656.035C655.105 390.616 654.349 391.372 654.349 392.302C654.349 393.232 655.105 393.988 656.035 393.988H703.781C704.711 393.988 705.468 393.232 705.468 392.302C705.468 391.372 704.711 390.616 703.781 390.616Z" fill="#323232"/>
<path d="M625.788 390.616H533.113C532.183 390.616 531.427 391.372 531.427 392.302C531.427 393.232 532.183 393.988 533.113 393.988H625.788C626.717 393.988 627.474 393.232 627.474 392.302C627.474 391.372 626.722 390.616 625.788 390.616Z" fill="#323232"/>
<path d="M673.443 237.764C672.354 237.764 671.25 237.456 670.272 236.81L608.929 196.315L547.586 236.81C546.305 237.658 544.763 237.952 543.25 237.644C541.737 237.335 540.436 236.458 539.588 235.177C538.741 233.895 538.447 232.353 538.755 230.841C539.063 229.328 539.94 228.027 541.227 227.179L605.595 184.684C606.583 184.029 607.749 183.706 608.929 183.74C610.134 183.706 611.276 184.034 612.263 184.684L676.632 227.179C679.287 228.933 680.019 232.517 678.27 235.172C677.157 236.849 675.317 237.764 673.443 237.764ZM608.929 192.605C609.252 192.605 609.575 192.696 609.859 192.884L672.127 233.992C673.231 234.719 674.719 234.416 675.452 233.312C676.179 232.209 675.876 230.72 674.772 229.988L610.404 187.493C609.989 187.218 609.503 187.088 608.997 187.108C608.953 187.108 608.905 187.108 608.862 187.108C608.356 187.093 607.869 187.223 607.455 187.493L543.086 229.988C542.556 230.34 542.19 230.879 542.065 231.51C541.935 232.141 542.06 232.782 542.407 233.312C542.759 233.842 543.298 234.208 543.93 234.334C544.561 234.464 545.201 234.343 545.731 233.992L607.999 192.884C608.284 192.701 608.607 192.605 608.929 192.605Z" fill="#323232"/>
<path d="M463.55 313.744C462.654 313.744 461.782 313.484 461.021 312.983L417.254 284.089L373.487 312.983C372.461 313.662 371.227 313.898 370.018 313.648C368.809 313.402 367.768 312.699 367.089 311.672C365.687 309.548 366.274 306.676 368.399 305.274L414.599 274.771C415.389 274.251 416.314 273.995 417.254 274.015C418.203 273.991 419.118 274.251 419.909 274.771L466.108 305.269C468.233 306.671 468.821 309.543 467.419 311.667C466.74 312.694 465.699 313.397 464.49 313.643C464.176 313.71 463.858 313.744 463.55 313.744ZM417.249 280.379C417.572 280.379 417.895 280.471 418.179 280.659L462.876 310.164C463.15 310.347 463.483 310.41 463.81 310.343C464.138 310.275 464.417 310.087 464.6 309.813C464.784 309.538 464.846 309.206 464.779 308.878C464.711 308.55 464.523 308.271 464.249 308.088L418.049 277.585C417.779 277.407 417.504 277.383 417.321 277.387C417.278 277.387 417.23 277.387 417.186 277.387C416.998 277.383 416.729 277.407 416.459 277.585L370.259 308.088C369.984 308.271 369.796 308.55 369.729 308.878C369.662 309.206 369.724 309.538 369.907 309.813C370.09 310.087 370.37 310.275 370.697 310.343C371.025 310.41 371.357 310.347 371.632 310.164L416.329 280.659C416.603 280.471 416.926 280.379 417.249 280.379Z" fill="#323232"/>
<path d="M667.006 286.108H550.395C549.465 286.108 548.709 285.351 548.709 284.421V232.936C548.709 232.006 549.465 231.25 550.395 231.25C551.325 231.25 552.082 232.006 552.082 232.936V282.735H665.319V232.633C665.319 231.703 666.076 230.946 667.006 230.946C667.936 230.946 668.692 231.703 668.692 232.633V284.421C668.692 285.351 667.936 286.108 667.006 286.108Z" fill="#323232"/>
<path d="M667.006 379.303H550.395C549.465 379.303 548.709 378.546 548.709 377.616V307.982C548.709 307.052 549.465 306.295 550.395 306.295C551.325 306.295 552.082 307.052 552.082 307.982V375.93H665.319V307.572C665.319 306.642 666.076 305.886 667.006 305.886C667.936 305.886 668.692 306.642 668.692 307.572V377.616C668.692 378.546 667.936 379.303 667.006 379.303Z" fill="#323232"/>
<path d="M608.698 234.319C601.736 234.319 596.07 228.654 596.07 221.691C596.07 214.729 601.736 209.063 608.698 209.063C615.66 209.063 621.326 214.729 621.326 221.691C621.326 228.654 615.665 234.319 608.698 234.319ZM608.698 212.436C603.596 212.436 599.443 216.589 599.443 221.691C599.443 226.794 603.596 230.947 608.698 230.947C613.801 230.947 617.954 226.794 617.954 221.691C617.954 216.589 613.805 212.436 608.698 212.436Z" fill="#323232"/>
<path d="M608.698 234.319C607.768 234.319 607.012 233.563 607.012 232.633V210.75C607.012 209.82 607.768 209.063 608.698 209.063C609.628 209.063 610.384 209.82 610.384 210.75V232.633C610.384 233.563 609.633 234.319 608.698 234.319Z" fill="#323232"/>
<path d="M619.558 223.377H597.757C596.827 223.377 596.07 222.621 596.07 221.691C596.07 220.761 596.827 220.005 597.757 220.005H619.558C620.488 220.005 621.244 220.761 621.244 221.691C621.244 222.621 620.488 223.377 619.558 223.377Z" fill="#323232"/>
<path d="M417.428 319.579C410.466 319.579 404.8 313.913 404.8 306.951C404.8 299.989 410.466 294.323 417.428 294.323C424.39 294.323 430.056 299.989 430.056 306.951C430.056 313.913 424.39 319.579 417.428 319.579ZM417.428 297.695C412.326 297.695 408.172 301.848 408.172 306.951C408.172 312.053 412.326 316.206 417.428 316.206C422.53 316.206 426.683 312.053 426.683 306.951C426.683 301.848 422.535 297.695 417.428 297.695Z" fill="#323232"/>
<path d="M417.428 319.579C416.498 319.579 415.742 318.822 415.742 317.892V296.009C415.742 295.079 416.498 294.323 417.428 294.323C418.358 294.323 419.114 295.079 419.114 296.009V317.892C419.114 318.822 418.363 319.579 417.428 319.579Z" fill="#323232"/>
<path d="M428.288 308.637H406.486C405.556 308.637 404.8 307.88 404.8 306.95C404.8 306.021 405.556 305.264 406.486 305.264H428.288C429.217 305.264 429.974 306.021 429.974 306.95C429.974 307.88 429.217 308.637 428.288 308.637Z" fill="#323232"/>
<path d="M589.276 268.686H569.629C568.699 268.686 567.942 267.93 567.942 267V247.352C567.942 246.422 568.699 245.666 569.629 245.666H589.276C590.206 245.666 590.963 246.422 590.963 247.352V267C590.963 267.93 590.206 268.686 589.276 268.686ZM571.315 265.313H587.59V249.038H571.315V265.313Z" fill="#323232"/>
<path d="M648.64 268.686H628.992C628.062 268.686 627.306 267.93 627.306 267V247.352C627.306 246.422 628.062 245.666 628.992 245.666H648.64C649.57 245.666 650.326 246.422 650.326 247.352V267C650.326 267.93 649.57 268.686 648.64 268.686ZM630.678 265.313H646.954V249.038H630.678V265.313Z" fill="#323232"/>
<path d="M675.972 309.259H541.439C540.885 309.259 540.369 308.989 540.051 308.531C539.738 308.078 539.666 307.495 539.858 306.98L548.536 283.829C548.781 283.169 549.412 282.735 550.116 282.735H667.295C667.998 282.735 668.624 283.174 668.875 283.829L677.552 306.98C677.745 307.495 677.673 308.078 677.36 308.531C677.046 308.989 676.526 309.259 675.972 309.259ZM543.872 305.886H673.539L666.124 286.108H551.287L543.872 305.886Z" fill="#323232"/>
<path d="M596.248 379.303C595.318 379.303 594.562 378.546 594.562 377.617V331.898H571.455V377.617C571.455 378.546 570.698 379.303 569.768 379.303C568.838 379.303 568.082 378.546 568.082 377.617V330.241C568.082 329.311 568.863 328.526 569.797 328.526H596.2C597.159 328.526 597.939 329.306 597.939 330.27V377.621C597.934 378.546 597.183 379.303 596.248 379.303Z" fill="#323232"/>
<path d="M648.851 348.309H614.586C613.656 348.309 612.899 347.552 612.899 346.622V320.952C612.899 320.022 613.656 319.266 614.586 319.266H648.851C649.781 319.266 650.538 320.022 650.538 320.952V346.622C650.538 347.557 649.786 348.309 648.851 348.309ZM616.272 344.936H647.165V322.638H616.272V344.936Z" fill="#323232"/>
<path d="M648.639 327.764H614.586C613.656 327.764 612.899 327.008 612.899 326.078C612.899 325.148 613.656 324.392 614.586 324.392H648.639C649.569 324.392 650.326 325.148 650.326 326.078C650.326 327.008 649.569 327.764 648.639 327.764Z" fill="#323232"/>
<path d="M589.276 253.736H569.629C568.699 253.736 567.942 252.979 567.942 252.05C567.942 251.12 568.699 250.363 569.629 250.363H589.276C590.206 250.363 590.963 251.12 590.963 252.05C590.963 252.979 590.206 253.736 589.276 253.736Z" fill="#323232"/>
<path d="M648.64 253.736H628.992C628.062 253.736 627.306 252.979 627.306 252.05C627.306 251.12 628.062 250.363 628.992 250.363H648.64C649.57 250.363 650.326 251.12 650.326 252.05C650.326 252.979 649.57 253.736 648.64 253.736Z" fill="#323232"/>
<path d="M255.422 339.973C255.152 339.973 254.877 339.945 254.603 339.892C253.548 339.675 252.642 339.063 252.054 338.171C250.835 336.321 251.346 333.826 253.196 332.602L289.972 308.324C290.656 307.871 291.461 307.645 292.275 307.664C293.104 307.64 293.894 307.871 294.578 308.324L331.354 332.602C333.204 333.821 333.715 336.321 332.496 338.171C331.908 339.063 331.002 339.675 329.947 339.892C328.892 340.108 327.822 339.901 326.926 339.309L292.28 316.433L257.633 339.309C256.959 339.747 256.198 339.973 255.422 339.973ZM292.174 311.032C292.044 311.032 291.928 311.065 291.827 311.133L255.051 335.411C254.757 335.603 254.675 336.013 254.868 336.307C254.993 336.5 255.181 336.562 255.277 336.582C255.378 336.601 255.571 336.615 255.764 336.49L291.34 313.002C291.904 312.631 292.636 312.631 293.2 313.002L328.776 336.49C328.969 336.615 329.162 336.601 329.263 336.582C329.364 336.562 329.547 336.5 329.672 336.307C329.865 336.013 329.783 335.603 329.489 335.411L292.713 311.133C292.574 311.041 292.429 311.027 292.337 311.032C292.294 311.032 292.246 311.032 292.203 311.032C292.193 311.032 292.183 311.032 292.174 311.032Z" fill="#323232"/>
<path d="M292.405 337.208C288.951 337.208 286.142 334.399 286.142 330.945C286.142 327.49 288.951 324.681 292.405 324.681C295.86 324.681 298.668 327.49 298.668 330.945C298.664 334.399 295.855 337.208 292.405 337.208ZM292.405 328.059C290.81 328.059 289.514 329.355 289.514 330.949C289.514 332.544 290.81 333.84 292.405 333.84C294 333.84 295.296 332.544 295.296 330.949C295.291 329.355 293.995 328.059 292.405 328.059Z" fill="#323232"/>
<path d="M324.946 379.038H259.855C258.925 379.038 258.168 378.281 258.168 377.352V336.052C258.168 335.122 258.925 334.365 259.855 334.365C260.785 334.365 261.541 335.122 261.541 336.052V375.665H323.26V336.052C323.26 335.122 324.016 334.365 324.946 334.365C325.876 334.365 326.632 335.122 326.632 336.052V377.352C326.632 378.281 325.881 379.038 324.946 379.038Z" fill="#323232"/>
<path d="M313.98 377.94C313.05 377.94 312.294 377.183 312.294 376.253V345.601H272.242V376.253C272.242 377.183 271.485 377.94 270.555 377.94C269.626 377.94 268.869 377.183 268.869 376.253V343.915C268.869 342.985 269.626 342.229 270.555 342.229H313.98C314.91 342.229 315.667 342.985 315.667 343.915V376.253C315.667 377.183 314.915 377.94 313.98 377.94Z" fill="#323232"/>
<path d="M313.98 349.788H270.556C269.891 349.788 269.351 349.248 269.351 348.583C269.351 347.919 269.891 347.379 270.556 347.379H313.98C314.645 347.379 315.185 347.919 315.185 348.583C315.185 349.253 314.65 349.788 313.98 349.788Z" fill="#323232"/>
<path d="M313.98 354.649H270.556C269.891 354.649 269.351 354.109 269.351 353.444C269.351 352.779 269.891 352.24 270.556 352.24H313.98C314.645 352.24 315.185 352.779 315.185 353.444C315.185 354.109 314.65 354.649 313.98 354.649Z" fill="#323232"/>
<path d="M313.98 359.506H270.556C269.891 359.506 269.351 358.966 269.351 358.301C269.351 357.636 269.891 357.097 270.556 357.097H313.98C314.645 357.097 315.185 357.636 315.185 358.301C315.185 358.966 314.65 359.506 313.98 359.506Z" fill="#323232"/>
<path d="M313.98 364.362H270.556C269.891 364.362 269.351 363.823 269.351 363.158C269.351 362.493 269.891 361.953 270.556 361.953H313.98C314.645 361.953 315.185 362.493 315.185 363.158C315.185 363.823 314.65 364.362 313.98 364.362Z" fill="#323232"/>
<path d="M313.98 369.219H270.556C269.891 369.219 269.351 368.679 269.351 368.014C269.351 367.349 269.891 366.81 270.556 366.81H313.98C314.645 366.81 315.185 367.349 315.185 368.014C315.185 368.679 314.65 369.219 313.98 369.219Z" fill="#323232"/>
<path d="M313.98 374.076H270.556C269.891 374.076 269.351 373.536 269.351 372.871C269.351 372.206 269.891 371.667 270.556 371.667H313.98C314.645 371.667 315.185 372.206 315.185 372.871C315.185 373.536 314.65 374.076 313.98 374.076Z" fill="#323232"/>
<path d="M692.449 380.734C691.52 380.734 690.763 379.977 690.763 379.048V298.23C690.763 297.3 691.52 296.544 692.449 296.544C693.379 296.544 694.136 297.3 694.136 298.23V379.048C694.136 379.977 693.379 380.734 692.449 380.734Z" fill="#323232"/>
<path d="M692.45 314.934C692.016 314.934 691.587 314.77 691.26 314.443L684.64 307.828C683.98 307.168 683.98 306.103 684.64 305.443C685.3 304.783 686.364 304.783 687.024 305.443L693.644 312.058C694.304 312.718 694.304 313.783 693.644 314.443C693.312 314.77 692.878 314.934 692.45 314.934Z" fill="#323232"/>
<path d="M692.45 327.283C692.117 327.283 691.78 327.186 691.486 326.979C690.72 326.449 690.532 325.399 691.062 324.633L698.318 314.197C698.848 313.431 699.898 313.243 700.664 313.773C701.431 314.303 701.618 315.353 701.088 316.119L693.832 326.555C693.505 327.027 692.98 327.283 692.45 327.283Z" fill="#323232"/>
<path d="M692.637 349.012C692.498 349.012 692.353 348.993 692.213 348.959C691.818 348.858 682.452 346.295 679.147 333.271C675.784 320.022 682.78 274.872 689.544 266.176C690.238 265.284 690.98 264.697 691.751 264.427C691.977 264.316 692.228 264.253 692.498 264.253H692.763C693.032 264.253 693.283 264.316 693.509 264.427C694.285 264.697 695.022 265.284 695.716 266.176C702.48 274.872 709.476 320.022 706.113 333.271C702.808 346.295 693.447 348.858 693.047 348.959C692.922 348.997 692.782 349.012 692.637 349.012ZM692.637 267.742C690.883 269.043 687.347 278.1 684.403 295.518C681.691 311.59 680.891 326.43 682.418 332.443C684.856 342.05 690.98 344.936 692.637 345.553C694.333 344.931 700.409 342.069 702.856 332.443C704.384 326.43 703.584 311.59 700.871 295.518C697.927 278.1 694.396 269.043 692.637 267.742Z" fill="#323232"/>
<path d="M223.151 382.96C222.221 382.96 221.465 382.203 221.465 381.273V300.842C221.465 299.912 222.221 299.155 223.151 299.155C224.081 299.155 224.837 299.912 224.837 300.842V381.273C224.837 382.208 224.081 382.96 223.151 382.96Z" fill="#323232"/>
<path d="M223.151 317.478C222.718 317.478 222.289 317.314 221.961 316.987L215.375 310.4C214.715 309.74 214.715 308.676 215.375 308.016C216.035 307.355 217.1 307.355 217.76 308.016L224.346 314.602C225.006 315.262 225.006 316.327 224.346 316.987C224.014 317.31 223.585 317.478 223.151 317.478Z" fill="#323232"/>
<path d="M223.151 329.764C222.818 329.764 222.481 329.668 222.187 329.46C221.421 328.93 221.233 327.88 221.763 327.114L228.985 316.726C229.515 315.96 230.566 315.772 231.332 316.302C232.098 316.832 232.286 317.883 231.756 318.649L224.534 329.036C224.211 329.509 223.686 329.764 223.151 329.764Z" fill="#323232"/>
<path d="M223.339 351.392C223.199 351.392 223.055 351.373 222.915 351.339C222.52 351.238 213.197 348.684 209.906 335.719C206.558 322.527 213.524 277.59 220.26 268.932C220.954 268.04 221.691 267.457 222.462 267.188C222.688 267.077 222.939 267.014 223.209 267.014H223.474C223.743 267.014 223.994 267.077 224.22 267.188C224.991 267.457 225.729 268.04 226.422 268.932C233.158 277.59 240.12 322.527 236.771 335.719C233.481 348.684 224.158 351.233 223.763 351.339C223.623 351.373 223.483 351.392 223.339 351.392ZM223.339 270.517C221.864 271.702 218.323 279.372 215.153 298.158C212.455 314.149 211.66 328.911 213.178 334.89C215.606 344.469 221.652 347.311 223.339 347.933C225.025 347.311 231.072 344.469 233.5 334.89C235.018 328.906 234.223 314.144 231.525 298.158C228.359 279.372 224.813 271.702 223.339 270.517Z" fill="#323232"/>
<path d="M454.064 378.831H380.189C379.259 378.831 378.503 378.075 378.503 377.145V307.105C378.503 306.175 379.259 305.419 380.189 305.419C381.119 305.419 381.876 306.175 381.876 307.105V375.458H452.382V307.105C452.382 306.175 453.139 305.419 454.069 305.419C454.999 305.419 455.755 306.175 455.755 307.105V377.145C455.75 378.075 454.999 378.831 454.064 378.831Z" fill="#323232"/>
<path d="M510.333 307.871H465.179C464.249 307.871 463.493 307.115 463.493 306.185C463.493 305.255 464.249 304.498 465.179 304.498H508.059L493.832 257.581H341.029L326.796 304.498H369.325C370.255 304.498 371.011 305.255 371.011 306.185C371.011 307.115 370.255 307.871 369.325 307.871H324.522C323.987 307.871 323.486 307.621 323.168 307.192C322.85 306.763 322.754 306.209 322.908 305.698L338.157 255.408C338.374 254.695 339.029 254.213 339.771 254.213H495.075C495.817 254.213 496.472 254.7 496.689 255.408L511.938 305.698C512.092 306.209 511.996 306.763 511.678 307.192C511.369 307.621 510.868 307.871 510.333 307.871Z" fill="#323232"/>
<path d="M502.856 378.831H331.185C330.255 378.831 329.499 378.074 329.499 377.145V306.185C329.499 305.255 330.255 304.499 331.185 304.499C332.115 304.499 332.872 305.255 332.872 306.185V375.458H501.174L501.473 306.18C501.478 305.25 502.23 304.503 503.159 304.503H503.164C504.094 304.508 504.846 305.265 504.846 306.199L504.537 377.159C504.537 378.079 503.781 378.831 502.856 378.831Z" fill="#323232"/>
<path d="M430.485 378.831C429.555 378.831 428.798 378.074 428.798 377.145V334.197H405.445V376.335C405.445 377.265 404.689 378.021 403.759 378.021C402.829 378.021 402.073 377.265 402.073 376.335V332.511C402.073 331.581 402.829 330.824 403.759 330.824H430.485C431.414 330.824 432.171 331.581 432.171 332.511V377.145C432.171 378.074 431.414 378.831 430.485 378.831Z" fill="#323232"/>
<path d="M365.576 352.813H345.914C344.984 352.813 344.228 352.057 344.228 351.127V321.781C344.228 320.851 344.984 320.094 345.914 320.094H365.576C366.506 320.094 367.262 320.851 367.262 321.781V351.127C367.262 352.062 366.511 352.813 365.576 352.813ZM347.605 349.441H363.895V323.467H347.605V349.441Z" fill="#323232"/>
<path d="M488.137 352.813H468.479C467.549 352.813 466.793 352.057 466.793 351.127V321.781C466.793 320.851 467.549 320.094 468.479 320.094H488.137C489.067 320.094 489.823 320.851 489.823 321.781V351.127C489.823 352.062 489.067 352.813 488.137 352.813ZM470.166 349.441H486.45V323.467H470.166V349.441Z" fill="#323232"/>
<path d="M560.711 218.025C559.781 218.025 559.024 217.268 559.024 216.338V192.099C559.024 191.169 559.781 190.413 560.711 190.413H577.145C578.075 190.413 578.831 191.169 578.831 192.099V205.488C578.831 206.418 578.075 207.174 577.145 207.174C576.215 207.174 575.459 206.418 575.459 205.488V193.785H562.397V216.338C562.397 217.268 561.641 218.025 560.711 218.025Z" fill="#323232"/>
<path d="M576.147 193.785H561.356C558.605 193.785 556.365 191.545 556.365 188.794V188.726C556.365 185.975 558.605 183.735 561.356 183.735H576.147C578.899 183.735 581.139 185.975 581.139 188.726V188.794C581.139 191.55 578.899 193.785 576.147 193.785ZM561.356 187.107C560.465 187.107 559.737 187.835 559.737 188.726V188.794C559.737 189.685 560.465 190.413 561.356 190.413H576.147C577.039 190.413 577.766 189.685 577.766 188.794V188.726C577.766 187.835 577.039 187.107 576.147 187.107H561.356Z" fill="#323232"/>
<path d="M542.99 378.831H505.048C504.118 378.831 503.362 378.075 503.362 377.145V341.665C503.362 340.735 504.118 339.979 505.048 339.979H542.99C543.92 339.979 544.676 340.735 544.676 341.665V377.145C544.676 378.075 543.92 378.831 542.99 378.831ZM506.734 375.458H541.304V343.351H506.734V375.458Z" fill="#323232"/>
<path d="M509.847 378.831C508.917 378.831 508.161 378.075 508.161 377.145V341.665C508.161 340.735 508.917 339.979 509.847 339.979C510.777 339.979 511.533 340.735 511.533 341.665V377.145C511.533 378.075 510.777 378.831 509.847 378.831Z" fill="#323232"/>
<path d="M515.446 378.831C514.516 378.831 513.759 378.075 513.759 377.145V341.665C513.759 340.735 514.516 339.979 515.446 339.979C516.375 339.979 517.132 340.735 517.132 341.665V377.145C517.132 378.075 516.38 378.831 515.446 378.831Z" fill="#323232"/>
<path d="M521.049 378.831C520.119 378.831 519.362 378.075 519.362 377.145V341.665C519.362 340.735 520.119 339.979 521.049 339.979C521.978 339.979 522.735 340.735 522.735 341.665V377.145C522.735 378.075 521.978 378.831 521.049 378.831Z" fill="#323232"/>
<path d="M526.647 378.831C525.717 378.831 524.961 378.075 524.961 377.145V341.665C524.961 340.735 525.717 339.979 526.647 339.979C527.577 339.979 528.334 340.735 528.334 341.665V377.145C528.334 378.075 527.577 378.831 526.647 378.831Z" fill="#323232"/>
<path d="M532.246 378.831C531.316 378.831 530.56 378.075 530.56 377.145V341.665C530.56 340.735 531.316 339.979 532.246 339.979C533.176 339.979 533.932 340.735 533.932 341.665V377.145C533.932 378.075 533.176 378.831 532.246 378.831Z" fill="#323232"/>
<path d="M537.845 378.831C536.915 378.831 536.158 378.075 536.158 377.145V341.665C536.158 340.735 536.915 339.979 537.845 339.979C538.774 339.979 539.531 340.735 539.531 341.665V377.145C539.531 378.075 538.779 378.831 537.845 378.831Z" fill="#323232"/>
<path d="M242.033 393.988C241.103 393.988 240.347 393.232 240.347 392.302V353.112C240.347 352.182 241.103 351.426 242.033 351.426C242.963 351.426 243.719 352.182 243.719 353.112V392.302C243.719 393.232 242.963 393.988 242.033 393.988Z" fill="#323232"/>
<path d="M242.033 361.943C241.604 361.943 241.175 361.78 240.843 361.452L237.017 357.651C236.357 356.995 236.352 355.926 237.007 355.266C237.663 354.606 238.732 354.601 239.392 355.256L243.218 359.057C243.878 359.713 243.883 360.782 243.228 361.442C242.9 361.78 242.466 361.943 242.033 361.943Z" fill="#323232"/>
<path d="M242.032 368.747C241.71 368.747 241.382 368.655 241.093 368.458C240.322 367.937 240.115 366.892 240.635 366.116L245.212 359.313C245.733 358.537 246.778 358.335 247.554 358.855C248.325 359.376 248.532 360.421 248.012 361.197L243.435 368C243.107 368.486 242.572 368.747 242.032 368.747Z" fill="#323232"/>
<path d="M242.033 373.897C233.467 373.897 226.495 366.925 226.495 358.359C226.495 349.792 233.467 342.821 242.033 342.821C250.6 342.821 257.571 349.792 257.571 358.359C257.571 366.925 250.6 373.897 242.033 373.897ZM242.033 346.193C235.327 346.193 229.868 351.652 229.868 358.359C229.868 365.066 235.327 370.524 242.033 370.524C248.74 370.524 254.199 365.066 254.199 358.359C254.199 351.652 248.74 346.193 242.033 346.193Z" fill="#323232"/>
<path d="M80.0754 230.802C78.2012 230.802 76.3607 229.892 75.2525 228.215C73.4988 225.56 74.2359 221.971 76.8907 220.222L141.259 177.727C142.247 177.072 143.403 176.749 144.593 176.783C145.779 176.749 146.935 177.077 147.927 177.727L212.296 220.222C214.951 221.976 215.683 225.56 213.934 228.215C212.18 230.87 208.596 231.607 205.941 229.853L144.589 189.353L83.2456 229.848C82.2724 230.494 81.1691 230.802 80.0754 230.802ZM78.7456 223.031C77.6423 223.758 77.3387 225.252 78.0663 226.355C78.7938 227.459 80.2874 227.762 81.3907 227.035L143.659 185.927C144.222 185.556 144.955 185.556 145.518 185.927L207.786 227.035C208.89 227.762 210.379 227.459 211.111 226.355C211.838 225.252 211.535 223.763 210.432 223.031L146.063 180.536C145.649 180.261 145.162 180.131 144.656 180.15C144.613 180.15 144.564 180.15 144.521 180.15C144.015 180.131 143.529 180.266 143.114 180.536L78.7456 223.031Z" fill="#323232"/>
<path d="M203.123 379.65H86.5125C85.5826 379.65 84.8262 378.894 84.8262 377.964V225.671C84.8262 224.741 85.5826 223.985 86.5125 223.985C87.4424 223.985 88.1988 224.741 88.1988 225.671V376.277H201.437V226.562C201.437 225.633 202.193 224.876 203.123 224.876C204.053 224.876 204.809 225.633 204.809 226.562V377.964C204.809 378.894 204.053 379.65 203.123 379.65Z" fill="#323232"/>
<path d="M144.82 227.357C137.858 227.357 132.192 221.691 132.192 214.729C132.192 207.767 137.858 202.101 144.82 202.101C151.782 202.101 157.448 207.767 157.448 214.729C157.448 221.691 151.782 227.357 144.82 227.357ZM144.82 205.474C139.718 205.474 135.565 209.627 135.565 214.729C135.565 219.831 139.718 223.984 144.82 223.984C149.922 223.984 154.075 219.831 154.075 214.729C154.075 209.627 149.922 205.474 144.82 205.474Z" fill="#323232"/>
<path d="M144.82 227.357C143.89 227.357 143.133 226.601 143.133 225.671V203.787C143.133 202.858 143.89 202.101 144.82 202.101C145.749 202.101 146.506 202.858 146.506 203.787V225.671C146.506 226.601 145.749 227.357 144.82 227.357Z" fill="#323232"/>
<path d="M155.762 216.416H133.96C133.03 216.416 132.274 215.659 132.274 214.729C132.274 213.799 133.03 213.043 133.96 213.043H155.762C156.692 213.043 157.448 213.799 157.448 214.729C157.448 215.659 156.692 216.416 155.762 216.416Z" fill="#323232"/>
<path d="M184.853 287.308H162.989C162.059 287.308 161.302 286.551 161.302 285.622V248.971C161.302 248.041 162.059 247.285 162.989 247.285H184.853C185.783 247.285 186.539 248.041 186.539 248.971V285.622C186.539 286.551 185.787 287.308 184.853 287.308ZM164.675 283.935H183.166V250.657H164.675V283.935Z" fill="#323232"/>
<path d="M184.853 268.368H162.989C162.059 268.368 161.302 267.612 161.302 266.682C161.302 265.752 162.059 264.996 162.989 264.996H184.853C185.783 264.996 186.539 265.752 186.539 266.682C186.539 267.612 185.787 268.368 184.853 268.368Z" fill="#323232"/>
<path d="M155.752 287.308H133.888C132.958 287.308 132.202 286.551 132.202 285.622V248.971C132.202 248.041 132.958 247.285 133.888 247.285H155.752C156.682 247.285 157.438 248.041 157.438 248.971V285.622C157.438 286.551 156.682 287.308 155.752 287.308ZM135.569 283.935H154.061V250.657H135.569V283.935Z" fill="#323232"/>
<path d="M155.752 268.368H133.888C132.958 268.368 132.202 267.612 132.202 266.682C132.202 265.752 132.958 264.996 133.888 264.996H155.752C156.682 264.996 157.438 265.752 157.438 266.682C157.438 267.612 156.682 268.368 155.752 268.368Z" fill="#323232"/>
<path d="M184.39 343.322H162.526C161.596 343.322 160.84 342.566 160.84 341.636V304.985C160.84 304.055 161.596 303.299 162.526 303.299H184.39C185.32 303.299 186.077 304.055 186.077 304.985V341.636C186.077 342.566 185.325 343.322 184.39 343.322ZM164.212 339.949H182.704V306.671H164.212V339.949Z" fill="#323232"/>
<path d="M184.39 324.377H162.526C161.596 324.377 160.84 323.621 160.84 322.691C160.84 321.761 161.596 321.005 162.526 321.005H184.39C185.32 321.005 186.077 321.761 186.077 322.691C186.077 323.621 185.325 324.377 184.39 324.377Z" fill="#323232"/>
<path d="M155.29 343.322H133.426C132.496 343.322 131.739 342.566 131.739 341.636V304.985C131.739 304.055 132.496 303.299 133.426 303.299H155.29C156.22 303.299 156.976 304.055 156.976 304.985V341.636C156.976 342.566 156.22 343.322 155.29 343.322ZM135.107 339.949H153.599V306.671H135.107V339.949Z" fill="#323232"/>
<path d="M155.29 324.377H133.426C132.496 324.377 131.739 323.621 131.739 322.691C131.739 321.761 132.496 321.005 133.426 321.005H155.29C156.22 321.005 156.976 321.761 156.976 322.691C156.976 323.621 156.22 324.377 155.29 324.377Z" fill="#323232"/>
<path d="M126.878 287.308H105.013C104.084 287.308 103.327 286.551 103.327 285.622V248.971C103.327 248.041 104.084 247.285 105.013 247.285H126.878C127.807 247.285 128.564 248.041 128.564 248.971V285.622C128.564 286.551 127.807 287.308 126.878 287.308ZM106.7 283.935H125.191V250.657H106.7V283.935Z" fill="#323232"/>
<path d="M126.878 268.368H105.013C104.084 268.368 103.327 267.612 103.327 266.682C103.327 265.752 104.084 264.996 105.013 264.996H126.878C127.807 264.996 128.564 265.752 128.564 266.682C128.564 267.612 127.807 268.368 126.878 268.368Z" fill="#323232"/>
<path d="M126.415 343.322H104.551C103.621 343.322 102.864 342.566 102.864 341.636V304.985C102.864 304.055 103.621 303.299 104.551 303.299H126.415C127.345 303.299 128.101 304.055 128.101 304.985V341.636C128.101 342.566 127.349 343.322 126.415 343.322ZM106.237 339.949H124.728V306.671H106.237V339.949Z" fill="#323232"/>
<path d="M126.415 324.377H104.551C103.621 324.377 102.864 323.621 102.864 322.691C102.864 321.761 103.621 321.005 104.551 321.005H126.415C127.345 321.005 128.101 321.761 128.101 322.691C128.101 323.621 127.349 324.377 126.415 324.377Z" fill="#323232"/>
<path d="M86.512 236.492H1.68606C1.02599 236.492 0.428557 236.107 0.15393 235.51C-0.120697 234.912 -0.0195184 234.204 0.409285 233.708L44.4026 182.743C44.7254 182.372 45.1879 182.16 45.6793 182.16H135.049C135.979 182.16 136.735 182.916 136.735 183.846C136.735 184.776 135.979 185.532 135.049 185.532H46.4502L5.36702 233.125H86.512C87.4419 233.125 88.1983 233.881 88.1983 234.811C88.1983 235.736 87.4467 236.492 86.512 236.492Z" fill="#323232"/>
<path d="M86.5126 379.65H5.70486C4.77498 379.65 4.01855 378.893 4.01855 377.964V234.806C4.01855 233.876 4.77498 233.12 5.70486 233.12C6.63474 233.12 7.39116 233.876 7.39116 234.806V376.277H86.5126C87.4424 376.277 88.1989 377.034 88.1989 377.964C88.1989 378.893 87.4473 379.65 86.5126 379.65Z" fill="#323232"/>
<path d="M63.6503 379.65C62.7205 379.65 61.964 378.893 61.964 377.963V320.639H29.9146V377.963C29.9146 378.893 29.1582 379.65 28.2283 379.65C27.2984 379.65 26.542 378.893 26.542 377.963V318.952C26.542 318.023 27.2984 317.266 28.2283 317.266H63.6503C64.5802 317.266 65.3366 318.023 65.3366 318.952V377.963C65.3366 378.893 64.5802 379.65 63.6503 379.65Z" fill="#323232"/>
<path d="M72.8047 274.555H20.1438C19.2139 274.555 18.4575 273.798 18.4575 272.868V248.971C18.4575 248.041 19.2139 247.285 20.1438 247.285H72.8095C73.7394 247.285 74.4958 248.041 74.4958 248.971V272.868C74.491 273.803 73.7346 274.555 72.8047 274.555ZM21.8301 271.182H71.1232V250.657H21.8301V271.182Z" fill="#323232"/>
<path d="M72.8047 255.186H20.1438C19.2139 255.186 18.4575 254.43 18.4575 253.5C18.4575 252.57 19.2139 251.813 20.1438 251.813H72.8095C73.7394 251.813 74.4958 252.57 74.4958 253.5C74.4958 254.43 73.7346 255.186 72.8047 255.186Z" fill="#323232"/>
<path d="M46.4744 274.554C45.5445 274.554 44.7881 273.798 44.7881 272.868V253.875C44.7881 252.945 45.5445 252.189 46.4744 252.189C47.4043 252.189 48.1607 252.945 48.1607 253.875V272.868C48.1607 273.803 47.4043 274.554 46.4744 274.554Z" fill="#323232"/>
<path d="M351.46 119.699H316.457C306.753 119.699 298.861 111.807 298.861 102.103C298.861 93.1129 305.554 85.6835 314.332 84.638C316.134 76.8858 323.183 71.1909 331.258 71.1909C339.511 71.1909 346.497 76.9244 348.222 84.8114C349.287 84.6139 350.371 84.5127 351.46 84.5127C361.163 84.5127 369.055 92.4046 369.055 102.108C369.055 111.812 361.163 119.699 351.46 119.699ZM331.258 74.5587C324.387 74.5587 318.432 79.6754 317.416 86.4592L317.208 87.8323L315.821 87.895C308.203 88.2322 302.234 94.4716 302.234 102.103C302.234 109.947 308.613 116.326 316.457 116.326H351.46C359.303 116.326 365.682 109.947 365.682 102.103C365.682 94.2596 359.303 87.8805 351.46 87.8805C350.062 87.8805 348.675 88.0829 347.34 88.4876L345.394 89.0754L345.177 87.0518C344.411 79.926 338.427 74.5587 331.258 74.5587Z" fill="#323232"/>
<path d="M468.022 157.65H433.019C423.315 157.65 415.423 149.758 415.423 140.055C415.423 130.351 423.315 122.459 433.019 122.459C434.108 122.459 435.192 122.561 436.256 122.758C437.981 114.876 444.967 109.138 453.221 109.138C461.296 109.138 468.344 114.833 470.146 122.585C478.925 123.635 485.617 131.064 485.617 140.05C485.617 149.758 477.725 157.65 468.022 157.65ZM433.019 125.832C425.175 125.832 418.796 132.211 418.796 140.055C418.796 147.899 425.175 154.278 433.019 154.278H468.022C475.865 154.278 482.244 147.899 482.244 140.055C482.244 132.423 476.275 126.184 468.658 125.847L467.27 125.784L467.063 124.411C466.041 117.627 460.091 112.51 453.221 112.51C446.047 112.51 440.063 117.882 439.301 125.003L439.085 127.027L437.138 126.439C435.804 126.034 434.421 125.832 433.019 125.832Z" fill="#323232"/>
<path d="M616.966 38.7027C616.792 49.9335 607.826 58.8998 596.595 59.0733C585.364 59.2467 576.393 49.6782 576.224 38.7027C576.051 27.4719 585.62 18.5008 596.595 18.3322C607.831 18.1635 616.797 27.7321 616.966 38.7027C616.99 40.2541 619.399 40.259 619.375 38.7027C619.216 28.2621 612.244 19.2765 602.131 16.6025C592.008 13.9285 581.317 19.0645 576.417 28.1272C571.426 37.3537 573.921 49.0036 581.63 55.8789C589.455 62.8506 601.37 63.1831 609.84 57.2328C615.857 53.0074 619.259 45.9876 619.37 38.7076C619.399 37.1513 616.99 37.1513 616.966 38.7027Z" fill="#2B292A"/>
<path d="M566.453 16.1352C569.715 18.7562 572.977 21.3724 576.239 23.9934C577.439 24.957 579.154 23.261 577.944 22.2878C574.683 19.6668 571.421 17.0506 568.159 14.4296C566.959 13.466 565.244 15.1619 566.453 16.1352Z" fill="#2B292A"/>
<path d="M587.017 15.3595C585.138 11.6593 583.259 7.96388 581.38 4.26364C580.677 2.87606 578.6 4.09983 579.299 5.47778C581.178 9.17802 583.057 12.8734 584.936 16.5737C585.639 17.9564 587.721 16.7375 587.017 15.3595Z" fill="#2B292A"/>
<path d="M560.387 48.1461C564.521 47.2018 568.65 46.2575 572.784 45.3179C574.297 44.971 573.656 42.6488 572.143 42.9957C568.009 43.94 563.88 44.8843 559.747 45.8238C558.234 46.1707 558.874 48.493 560.387 48.1461Z" fill="#2B292A"/>
<path d="M572.731 31.9621C568.617 31.0226 564.502 30.0831 560.383 29.1436C558.87 28.7967 558.229 31.119 559.742 31.4659C563.857 32.4054 567.971 33.3449 572.091 34.2844C573.604 34.6313 574.249 32.309 572.731 31.9621Z" fill="#2B292A"/>
<path d="M595.4 1.1657C595.4 5.52118 595.4 9.87185 595.4 14.2273C595.4 15.7787 597.809 15.7787 597.809 14.2273C597.809 9.87185 597.809 5.52118 597.809 1.1657C597.809 -0.390519 595.4 -0.390519 595.4 1.1657Z" fill="#2B292A"/>
<path d="M608.568 16.5737C610.35 12.8735 612.128 9.17805 613.911 5.47781C614.58 4.08541 612.504 2.86163 611.829 4.26367C610.047 7.96391 608.269 11.6593 606.486 15.3596C605.817 16.752 607.893 17.9709 608.568 16.5737Z" fill="#2B292A"/>
<path d="M568.159 62.8649C571.421 60.2631 574.683 57.6614 577.944 55.0645C579.159 54.0961 577.443 52.405 576.239 53.3589C572.977 55.9607 569.715 58.5624 566.453 61.1593C565.239 62.1277 566.959 63.8188 568.159 62.8649Z" fill="#2B292A"/>
<path d="M633.468 45.8238C629.334 44.8795 625.205 43.9352 621.071 42.9957C619.558 42.6488 618.917 44.971 620.43 45.3179C624.564 46.2623 628.693 47.2066 632.827 48.1461C634.34 48.493 634.981 46.1707 633.468 45.8238Z" fill="#2B292A"/>
<path d="M614.74 54.6411C618.18 57.3825 621.615 60.124 625.05 62.8654C626.25 63.8242 627.97 62.1283 626.756 61.1599C623.316 58.4184 619.881 55.677 616.445 52.9355C615.241 51.9767 613.526 53.6727 614.74 54.6411Z" fill="#2B292A"/>
<path d="M621.066 34.2994C625.2 33.3551 629.329 32.4108 633.463 31.4713C634.976 31.1244 634.335 28.8021 632.822 29.149C628.688 30.0933 624.559 31.0376 620.425 31.9772C618.912 32.3192 619.553 34.6415 621.066 34.2994Z" fill="#2B292A"/>
<path d="M625.05 14.4297C621.764 17.0507 618.483 19.6668 615.197 22.2878C613.983 23.2563 615.698 24.9474 616.903 23.9934C620.189 21.3724 623.47 18.7562 626.756 16.1352C627.97 15.1668 626.255 13.4709 625.05 14.4297Z" fill="#2B292A"/>
<path d="M613.911 71.817C612.032 67.9144 610.153 64.0118 608.274 60.1092C607.599 58.712 605.523 59.9309 606.192 61.3233C608.071 65.2259 609.95 69.1285 611.829 73.0311C612.504 74.4331 614.58 73.2094 613.911 71.817Z" fill="#2B292A"/>
<path d="M595.4 63.217C595.4 67.5195 595.4 71.8268 595.4 76.1292C595.4 77.6806 597.809 77.6806 597.809 76.1292C597.809 71.8268 597.809 67.5195 597.809 63.217C597.809 61.6608 595.4 61.6608 595.4 63.217Z" fill="#2B292A"/>
<path d="M581.38 73.0313C583.259 69.3118 585.138 65.5923 587.017 61.8728C587.716 60.49 585.639 59.2711 584.936 60.6587C583.057 64.3782 581.178 68.0977 579.299 71.8172C578.6 73.1999 580.677 74.4189 581.38 73.0313Z" fill="#2B292A"/>
<path d="M149.262 106.256H115.96C106.685 106.256 99.1353 98.7113 99.1353 89.4318C99.1353 80.1572 106.68 72.6073 115.96 72.6073C116.976 72.6073 117.983 72.6989 118.976 72.8771C120.653 65.3755 127.316 59.9312 135.179 59.9312C142.878 59.9312 149.609 65.3466 151.348 72.7326C159.712 73.7637 166.082 80.851 166.082 89.427C166.082 98.7065 158.537 106.256 149.262 106.256ZM115.955 75.9799C108.54 75.9799 102.503 82.0121 102.503 89.4318C102.503 96.8468 108.535 102.884 115.955 102.884H149.257C156.672 102.884 162.709 96.8516 162.709 89.4318C162.709 82.2145 157.067 76.3124 149.859 75.9944L148.472 75.9318L148.265 74.5586C147.301 68.141 141.673 63.3038 135.174 63.3038C128.39 63.3038 122.734 68.3819 122.011 75.1175L121.794 77.1411L119.848 76.5533C118.59 76.1727 117.28 75.9799 115.955 75.9799Z" fill="#323232"/>
<path d="M116.114 126.203C115.184 126.203 114.428 125.446 114.428 124.516V116.788C114.428 115.858 115.184 115.102 116.114 115.102C117.044 115.102 117.8 115.858 117.8 116.788V124.521C117.8 125.451 117.044 126.203 116.114 126.203Z" fill="#323232"/>
<path d="M116.114 153.064C115.184 153.064 114.428 152.307 114.428 151.377V134.827C114.428 133.898 115.184 133.141 116.114 133.141C117.044 133.141 117.8 133.898 117.8 134.827V151.377C117.8 152.307 117.044 153.064 116.114 153.064Z" fill="#323232"/>
<path d="M128.863 153.064C127.933 153.064 127.176 152.307 127.176 151.377V143.644C127.176 142.714 127.933 141.958 128.863 141.958C129.792 141.958 130.549 142.714 130.549 143.644V151.377C130.549 152.307 129.797 153.064 128.863 153.064Z" fill="#323232"/>
<path d="M128.863 135.02C127.933 135.02 127.176 134.263 127.176 133.333V116.788C127.176 115.858 127.933 115.102 128.863 115.102C129.792 115.102 130.549 115.858 130.549 116.788V133.338C130.549 134.268 129.797 135.02 128.863 135.02Z" fill="#323232"/>
<path d="M141.751 126.203C140.821 126.203 140.064 125.446 140.064 124.516V116.788C140.064 115.858 140.821 115.102 141.751 115.102C142.681 115.102 143.437 115.858 143.437 116.788V124.521C143.437 125.451 142.681 126.203 141.751 126.203Z" fill="#323232"/>
<path d="M141.751 153.064C140.821 153.064 140.064 152.307 140.064 151.377V134.827C140.064 133.898 140.821 133.141 141.751 133.141C142.681 133.141 143.437 133.898 143.437 134.827V151.377C143.437 152.307 142.681 153.064 141.751 153.064Z" fill="#323232"/>
<path d="M154.504 153.064C153.574 153.064 152.818 152.307 152.818 151.377V143.644C152.818 142.714 153.574 141.958 154.504 141.958C155.434 141.958 156.19 142.714 156.19 143.644V151.377C156.19 152.307 155.434 153.064 154.504 153.064Z" fill="#323232"/>
<path d="M154.504 135.02C153.574 135.02 152.818 134.263 152.818 133.333V116.788C152.818 115.858 153.574 115.102 154.504 115.102C155.434 115.102 156.19 115.858 156.19 116.788V133.338C156.19 134.268 155.434 135.02 154.504 135.02Z" fill="#323232"/>
</g>
<defs>
<clipPath id="clip0_610_983">
<rect width="707" height="393.988" fill="white"/>
</clipPath>
</defs>
</svg>
