<svg width="73" height="25" viewBox="0 0 73 25" fill="none" xmlns="http://www.w3.org/2000/svg">
<path d="M0.0171891 22.84L1.57719 22.92C2.08386 22.92 2.33719 22.6267 2.33719 22.04V2.08C2.33719 1.84 2.25719 1.64 2.09719 1.48C1.96386 1.29333 1.75052 1.21333 1.45719 1.24L0.0171891 1.32V0.12H9.01719C11.9772 0.12 14.1239 0.626666 15.4572 1.64C16.7905 2.62667 17.4572 4.24 17.4572 6.48C17.4572 7.84 17.0039 9.02667 16.0972 10.04C15.2172 11.0267 14.0439 11.72 12.5772 12.12C13.4039 12.12 14.2305 12.4 15.0572 12.96C15.9105 13.52 16.6172 14.3333 17.1772 15.4C17.7372 16.4667 18.0172 17.7067 18.0172 19.12C18.0172 19.92 18.1105 20.7333 18.2972 21.56C18.5105 22.3867 18.8039 22.8267 19.1772 22.88C19.3372 22.9333 19.5239 22.96 19.7372 22.96C20.0572 22.96 20.3105 22.9067 20.4972 22.8V24H15.0572C14.7372 23.3333 14.5505 22.4533 14.4972 21.36C14.4439 20.6667 14.4172 20.16 14.4172 19.84V18.52C14.4172 16.52 13.7639 15.0267 12.4572 14.04C11.1772 13.0533 9.60386 12.56 7.73719 12.56H6.05719V22.04C6.05719 22.6267 6.32386 22.92 6.85719 22.92L8.81719 22.84V24H0.0171891V22.84ZM9.77719 11.48C11.0039 11.48 11.9639 11.04 12.6572 10.16C13.3505 9.28 13.6972 8.05333 13.6972 6.48C13.6972 4.64 13.3105 3.30667 12.5372 2.48C11.7905 1.65333 10.6172 1.24 9.01719 1.24H6.53719C6.21719 1.24 6.05719 1.37333 6.05719 1.64V11.48H9.77719ZM31.0994 6.8C33.206 6.8 34.8994 7.48 36.1794 8.84C37.486 10.1733 38.166 12.0133 38.2194 14.36V15.52H26.6994C26.6994 17.9467 27.1127 19.8133 27.9394 21.12C28.7927 22.4 30.0594 23.0533 31.7394 23.08C33.0727 23.08 34.1927 22.7467 35.0994 22.08C36.0327 21.4133 36.7127 20.5867 37.1394 19.6L38.0594 20.28C37.526 21.56 36.6194 22.5733 35.3394 23.32C34.086 24.04 32.6994 24.4 31.1794 24.4C25.766 24.4 23.0594 21.48 23.0594 15.64C23.0594 12.7333 23.7394 10.5333 25.0994 9.04C26.4594 7.54667 28.4594 6.8 31.0994 6.8ZM31.0994 7.88C29.606 7.88 28.4994 8.49333 27.7794 9.72C27.086 10.9467 26.7394 12.5467 26.7394 14.52H34.0194C34.286 14.52 34.486 14.4267 34.6194 14.24C34.7527 14.0533 34.8194 13.7067 34.8194 13.2C34.8194 11.3867 34.526 10.0533 33.9394 9.2C33.3794 8.32 32.4327 7.88 31.0994 7.88ZM60.2281 22.96V24H52.4281V22.96L54.2681 23.04C54.6148 22.96 54.7881 22.7067 54.7881 22.28V13.2C54.7881 11.92 54.7215 10.9333 54.5881 10.24C54.4815 9.54667 54.2415 9.01333 53.8681 8.64C53.4948 8.26667 52.9081 8.08 52.1081 8.08C50.5881 8.08 49.3481 8.73333 48.3881 10.04C47.4548 11.32 46.9481 13.0533 46.8681 15.24V22.28C46.8681 22.7867 47.0415 23.04 47.3881 23.04L49.2281 22.96V24H41.4281V22.96L42.9081 23.04C43.2548 22.96 43.4281 22.7067 43.4281 22.28V8.96C43.4281 8.50667 43.2548 8.24 42.9081 8.16L41.4281 8.24V7.2H47.0681C46.9348 7.6 46.8681 8.06667 46.8681 8.6V10.8C47.4281 9.54667 48.2281 8.57333 49.2681 7.88C50.3081 7.16 51.5081 6.8 52.8681 6.8C54.7615 6.8 56.1215 7.25333 56.9481 8.16C57.8015 9.04 58.2281 10.48 58.2281 12.48V22.28C58.2281 22.7867 58.4015 23.04 58.7481 23.04L60.2281 22.96ZM68.2838 7.2H72.6838V8.2H68.2838V20.48C68.2838 21.4933 68.4038 22.1867 68.6438 22.56C68.8838 22.9067 69.3104 23.08 69.9238 23.08C70.3238 23.08 70.7371 22.9333 71.1638 22.64C71.5904 22.32 71.8704 21.9333 72.0038 21.48L72.8438 22C72.3104 23.4933 70.8971 24.24 68.6038 24.24C67.2438 24.24 66.2704 23.92 65.6838 23.28C65.1238 22.64 64.8438 21.6 64.8438 20.16V8.2H62.4438V7.2C63.5104 7.2 64.3238 7.10667 64.8838 6.92C65.4438 6.70667 65.8838 6.32 66.2038 5.76C66.5504 5.2 66.8704 4.32 67.1638 3.12H68.2838V7.2Z" fill="black"/>
</svg>
