<svg width="16" height="16" viewBox="0 0 16 16" fill="none" xmlns="http://www.w3.org/2000/svg">
<g clip-path="url(#clip0_734_1198)">
<path d="M11.332 2.00033H13.9987C14.1755 2.00033 14.3451 2.07056 14.4701 2.19559C14.5951 2.32061 14.6654 2.49018 14.6654 2.66699V13.3337C14.6654 13.5105 14.5951 13.68 14.4701 13.8051C14.3451 13.9301 14.1755 14.0003 13.9987 14.0003H1.9987C1.82189 14.0003 1.65232 13.9301 1.52729 13.8051C1.40227 13.68 1.33203 13.5105 1.33203 13.3337V2.66699C1.33203 2.49018 1.40227 2.32061 1.52729 2.19559C1.65232 2.07056 1.82189 2.00033 1.9987 2.00033H4.66536V0.666992H5.9987V2.00033H9.9987V0.666992H11.332V2.00033ZM13.332 6.00033V3.33366H11.332V4.66699H9.9987V3.33366H5.9987V4.66699H4.66536V3.33366H2.66536V6.00033H13.332ZM13.332 7.33366H2.66536V12.667H13.332V7.33366ZM3.9987 8.66699H7.33203V11.3337H3.9987V8.66699Z" fill="black"/>
</g>
<defs>
<clipPath id="clip0_734_1198">
<rect width="16" height="16" fill="white"/>
</clipPath>
</defs>
</svg>
