<svg width="245" height="40" viewBox="0 0 245 40" fill="none" xmlns="http://www.w3.org/2000/svg">
<path d="M1.15594 21.88C1.76927 26.8133 4.22261 29.28 8.51594 29.28C9.84927 29.28 10.9026 28.84 11.6759 27.96C12.4759 27.08 12.8893 25.92 12.9159 24.48C12.9159 23.44 12.5559 22.5333 11.8359 21.76C11.1426 20.96 10.1826 20.32 8.95594 19.84L4.87594 18.2C3.43594 17.6133 2.34261 16.8267 1.59594 15.84C0.849272 14.8533 0.475939 13.6933 0.475939 12.36C0.475939 11.16 0.755939 10.0533 1.31594 9.04C1.87594 8.02667 2.71594 7.22667 3.83594 6.64C4.95594 6.02666 6.30261 5.72 7.87594 5.72C8.72927 5.72 9.44927 5.8 10.0359 5.96C10.6493 6.09333 11.2493 6.26667 11.8359 6.48C12.4226 6.66667 12.8226 6.8 13.0359 6.88C13.4626 7.04 13.8226 7.12 14.1159 7.12C14.5959 7.12 14.9826 7.06667 15.2759 6.96C15.1959 7.6 15.1559 8.6 15.1559 9.96C15.1559 10.76 15.1693 11.3333 15.1959 11.68C15.2226 12.0267 15.2893 12.3467 15.3959 12.64H14.3559C14.3559 10.9067 13.7826 9.50667 12.6359 8.44C11.5159 7.34667 10.1026 6.8 8.39594 6.8C7.00927 6.8 5.88927 7.18667 5.03594 7.96C4.18261 8.70667 3.75594 9.76 3.75594 11.12C3.75594 12 4.06261 12.8 4.67594 13.52C5.28927 14.2133 6.12927 14.7733 7.19594 15.2L10.8759 16.68C12.9026 17.5067 14.3426 18.4267 15.1959 19.44C16.0759 20.4267 16.5159 21.7067 16.5159 23.28C16.5159 24.6667 16.1693 25.9067 15.4759 27C14.8093 28.0667 13.8893 28.9067 12.7159 29.52C11.5693 30.1067 10.3159 30.4 8.95594 30.4C8.12927 30.4 7.40927 30.36 6.79594 30.28C6.18261 30.2267 5.52927 30.0933 4.83594 29.88C3.42261 29.48 2.36927 29.28 1.67594 29.28C1.43594 29.28 1.18261 29.3067 0.915939 29.36C0.649272 29.4133 0.449272 29.4533 0.315939 29.48C0.422606 28.92 0.475939 27.8133 0.475939 26.16C0.475939 24 0.369272 22.5733 0.155939 21.88H1.15594ZM38.6016 28.96V30H30.8016V28.96L32.6416 29.04C32.9882 28.96 33.1616 28.7067 33.1616 28.28V19.2C33.1616 17.92 33.0949 16.9333 32.9616 16.24C32.8549 15.5467 32.6149 15.0133 32.2416 14.64C31.8682 14.2667 31.2816 14.08 30.4816 14.08C28.9616 14.08 27.7216 14.7333 26.7616 16.04C25.8282 17.32 25.3216 19.0533 25.2416 21.24V28.28C25.2416 28.7867 25.4149 29.04 25.7616 29.04L27.6016 28.96V30H19.8016V28.96L21.2816 29.04C21.6282 28.96 21.8016 28.7067 21.8016 28.28V2.56C21.8016 2 21.6282 1.72 21.2816 1.72L19.8016 1.8V0.799999H25.2416V16.8C25.8016 15.5467 26.6016 14.5733 27.6416 13.88C28.6816 13.16 29.8816 12.8 31.2416 12.8C33.1349 12.8 34.4949 13.2533 35.3216 14.16C36.1749 15.04 36.6016 16.48 36.6016 18.48V28.28C36.6016 28.7867 36.7749 29.04 37.1216 29.04L38.6016 28.96ZM41.2172 21.56C41.2172 18.84 41.8972 16.7067 43.2572 15.16C44.6172 13.5867 46.6172 12.8 49.2572 12.8C51.8972 12.8 53.8972 13.5867 55.2572 15.16C56.6172 16.7067 57.2972 18.84 57.2972 21.56C57.2972 24.3333 56.6172 26.5067 55.2572 28.08C53.8972 29.6267 51.8972 30.4 49.2572 30.4C46.6172 30.4 44.6172 29.6267 43.2572 28.08C41.8972 26.5067 41.2172 24.3333 41.2172 21.56ZM44.8572 21.64C44.8572 24.3333 45.1905 26.2933 45.8572 27.52C46.5505 28.72 47.6839 29.32 49.2572 29.32C50.8305 29.32 51.9505 28.72 52.6172 27.52C53.3105 26.2933 53.6572 24.3333 53.6572 21.64C53.6572 18.92 53.3105 16.9467 52.6172 15.72C51.9505 14.4933 50.8305 13.88 49.2572 13.88C47.6839 13.88 46.5505 14.4933 45.8572 15.72C45.1905 16.9467 44.8572 18.92 44.8572 21.64ZM70.5644 12.8C71.6044 12.8 72.4044 13.0933 72.9644 13.68C73.551 14.2667 73.8444 15.0133 73.8444 15.92C73.8444 16.5333 73.6844 17 73.3644 17.32C73.071 17.64 72.671 17.8 72.1644 17.8C71.791 17.8 71.4444 17.7067 71.1244 17.52C70.831 17.3067 70.6844 16.9867 70.6844 16.56C70.6844 16.32 70.7377 16.0133 70.8444 15.64C70.951 15.2667 71.0044 14.9733 71.0044 14.76C71.0044 14.5467 70.9244 14.36 70.7644 14.2C70.631 14.0133 70.4044 13.92 70.0844 13.92C69.2577 13.92 68.5377 14.32 67.9244 15.12C67.311 15.8933 66.831 16.8667 66.4844 18.04C66.1377 19.1867 65.9377 20.2933 65.8844 21.36V28.28C65.8844 28.7867 66.0577 29.04 66.4044 29.04L68.8444 28.96V30H60.6444V28.96L61.9244 29.04C62.271 29.04 62.4444 28.7867 62.4444 28.28V14.96C62.4444 14.4267 62.271 14.16 61.9244 14.16L60.4844 14.24V13.2H66.1244C66.071 13.36 66.0177 13.6267 65.9644 14C65.911 14.3467 65.8844 14.6933 65.8844 15.04V17C66.4977 15.5067 67.1777 14.44 67.9244 13.8C68.6977 13.1333 69.5777 12.8 70.5644 12.8ZM75.6769 22.44V20.24H83.9169V22.44H75.6769ZM92.0369 13.2H96.4369V14.2H92.0369V26.48C92.0369 27.4933 92.1569 28.1867 92.3969 28.56C92.6369 28.9067 93.0635 29.08 93.6769 29.08C94.0769 29.08 94.4902 28.9333 94.9169 28.64C95.3435 28.32 95.6235 27.9333 95.7569 27.48L96.5969 28C96.0635 29.4933 94.6502 30.24 92.3569 30.24C90.9969 30.24 90.0235 29.92 89.4369 29.28C88.8769 28.64 88.5969 27.6 88.5969 26.16V14.2H86.1969V13.2C87.2635 13.2 88.0769 13.1067 88.6369 12.92C89.1969 12.7067 89.6369 12.32 89.9569 11.76C90.3035 11.2 90.6235 10.32 90.9169 9.12H92.0369V13.2ZM107.576 12.8C109.683 12.8 111.376 13.48 112.656 14.84C113.963 16.1733 114.643 18.0133 114.696 20.36V21.52H103.176C103.176 23.9467 103.589 25.8133 104.416 27.12C105.269 28.4 106.536 29.0533 108.216 29.08C109.549 29.08 110.669 28.7467 111.576 28.08C112.509 27.4133 113.189 26.5867 113.616 25.6L114.536 26.28C114.003 27.56 113.096 28.5733 111.816 29.32C110.563 30.04 109.176 30.4 107.656 30.4C102.243 30.4 99.5359 27.48 99.5359 21.64C99.5359 18.7333 100.216 16.5333 101.576 15.04C102.936 13.5467 104.936 12.8 107.576 12.8ZM107.576 13.88C106.083 13.88 104.976 14.4933 104.256 15.72C103.563 16.9467 103.216 18.5467 103.216 20.52H110.496C110.763 20.52 110.963 20.4267 111.096 20.24C111.229 20.0533 111.296 19.7067 111.296 19.2C111.296 17.3867 111.003 16.0533 110.416 15.2C109.856 14.32 108.909 13.88 107.576 13.88ZM127.985 12.8C129.025 12.8 129.825 13.0933 130.385 13.68C130.971 14.2667 131.265 15.0133 131.265 15.92C131.265 16.5333 131.105 17 130.785 17.32C130.491 17.64 130.091 17.8 129.585 17.8C129.211 17.8 128.865 17.7067 128.545 17.52C128.251 17.3067 128.105 16.9867 128.105 16.56C128.105 16.32 128.158 16.0133 128.265 15.64C128.371 15.2667 128.425 14.9733 128.425 14.76C128.425 14.5467 128.345 14.36 128.185 14.2C128.051 14.0133 127.825 13.92 127.505 13.92C126.678 13.92 125.958 14.32 125.345 15.12C124.731 15.8933 124.251 16.8667 123.905 18.04C123.558 19.1867 123.358 20.2933 123.305 21.36V28.28C123.305 28.7867 123.478 29.04 123.825 29.04L126.265 28.96V30H118.065V28.96L119.345 29.04C119.691 29.04 119.865 28.7867 119.865 28.28V14.96C119.865 14.4267 119.691 14.16 119.345 14.16L117.905 14.24V13.2H123.545C123.491 13.36 123.438 13.6267 123.385 14C123.331 14.3467 123.305 14.6933 123.305 15.04V17C123.918 15.5067 124.598 14.44 125.345 13.8C126.118 13.1333 126.998 12.8 127.985 12.8ZM163.457 28.96V30H155.657V28.96L157.497 29.04C157.844 28.96 158.017 28.7067 158.017 28.28V19.2C158.017 17.92 157.951 16.9333 157.817 16.24C157.711 15.5467 157.471 15.0133 157.097 14.64C156.724 14.2667 156.137 14.08 155.337 14.08C153.924 14.08 152.737 14.72 151.777 16C150.844 17.28 150.337 18.9733 150.257 21.08V28.28C150.257 28.7867 150.431 29.04 150.777 29.04L152.657 28.96V30H144.457V28.96L146.297 29.04C146.644 28.96 146.817 28.7067 146.817 28.28V19.12C146.817 17.7333 146.737 16.6933 146.577 16C146.444 15.3067 146.177 14.8267 145.777 14.56C145.404 14.2667 144.804 14.12 143.977 14.12C142.617 14.12 141.497 14.7333 140.617 15.96C139.737 17.1867 139.231 18.7867 139.097 20.76L139.057 28.28C139.057 28.7867 139.231 29.04 139.577 29.04L141.417 28.96V30H133.617V28.96L135.097 29.04C135.444 28.96 135.617 28.7067 135.617 28.28V14.96C135.617 14.7467 135.564 14.56 135.457 14.4C135.377 14.24 135.257 14.16 135.097 14.16L133.617 14.24V13.2H139.297C139.164 13.6 139.097 14.0533 139.097 14.56V16.76C139.497 15.5867 140.204 14.64 141.217 13.92C142.231 13.1733 143.457 12.8 144.897 12.8C146.417 12.8 147.604 13.12 148.457 13.76C149.337 14.4 149.897 15.5867 150.137 17.32C150.591 15.8533 151.337 14.7333 152.377 13.96C153.444 13.1867 154.684 12.8 156.097 12.8C157.991 12.8 159.351 13.2533 160.177 14.16C161.031 15.04 161.457 16.48 161.457 18.48V28.28C161.457 28.7867 161.631 29.04 161.977 29.04L163.457 28.96ZM139.057 21.88V22.2V21.88ZM176.757 21.88C177.371 26.8133 179.824 29.28 184.117 29.28C185.451 29.28 186.504 28.84 187.277 27.96C188.077 27.08 188.491 25.92 188.517 24.48C188.517 23.44 188.157 22.5333 187.437 21.76C186.744 20.96 185.784 20.32 184.557 19.84L180.477 18.2C179.037 17.6133 177.944 16.8267 177.197 15.84C176.451 14.8533 176.077 13.6933 176.077 12.36C176.077 11.16 176.357 10.0533 176.917 9.04C177.477 8.02667 178.317 7.22667 179.437 6.64C180.557 6.02666 181.904 5.72 183.477 5.72C184.331 5.72 185.051 5.8 185.637 5.96C186.251 6.09333 186.851 6.26667 187.437 6.48C188.024 6.66667 188.424 6.8 188.637 6.88C189.064 7.04 189.424 7.12 189.717 7.12C190.197 7.12 190.584 7.06667 190.877 6.96C190.797 7.6 190.757 8.6 190.757 9.96C190.757 10.76 190.771 11.3333 190.797 11.68C190.824 12.0267 190.891 12.3467 190.997 12.64H189.957C189.957 10.9067 189.384 9.50667 188.237 8.44C187.117 7.34667 185.704 6.8 183.997 6.8C182.611 6.8 181.491 7.18667 180.637 7.96C179.784 8.70667 179.357 9.76 179.357 11.12C179.357 12 179.664 12.8 180.277 13.52C180.891 14.2133 181.731 14.7733 182.797 15.2L186.477 16.68C188.504 17.5067 189.944 18.4267 190.797 19.44C191.677 20.4267 192.117 21.7067 192.117 23.28C192.117 24.6667 191.771 25.9067 191.077 27C190.411 28.0667 189.491 28.9067 188.317 29.52C187.171 30.1067 185.917 30.4 184.557 30.4C183.731 30.4 183.011 30.36 182.397 30.28C181.784 30.2267 181.131 30.0933 180.437 29.88C179.024 29.48 177.971 29.28 177.277 29.28C177.037 29.28 176.784 29.3067 176.517 29.36C176.251 29.4133 176.051 29.4533 175.917 29.48C176.024 28.92 176.077 27.8133 176.077 26.16C176.077 24 175.971 22.5733 175.757 21.88H176.757ZM200.843 13.2H205.243V14.2H200.843V26.48C200.843 27.4933 200.963 28.1867 201.203 28.56C201.443 28.9067 201.87 29.08 202.483 29.08C202.883 29.08 203.296 28.9333 203.723 28.64C204.15 28.32 204.43 27.9333 204.563 27.48L205.403 28C204.87 29.4933 203.456 30.24 201.163 30.24C199.803 30.24 198.83 29.92 198.243 29.28C197.683 28.64 197.403 27.6 197.403 26.16V14.2H195.003V13.2C196.07 13.2 196.883 13.1067 197.443 12.92C198.003 12.7067 198.443 12.32 198.763 11.76C199.11 11.2 199.43 10.32 199.723 9.12H200.843V13.2ZM224.142 28.96V30H218.462C218.489 29.8133 218.516 29.5733 218.542 29.28C218.596 28.96 218.622 28.7067 218.622 28.52L218.702 26.96C218.116 28.1067 217.356 28.9333 216.422 29.44C215.516 29.9467 214.422 30.2 213.142 30.2C211.462 30.2 210.182 29.8267 209.302 29.08C208.449 28.3067 208.022 27.1733 208.022 25.68C208.022 23.6267 208.876 22.12 210.582 21.16C212.316 20.1733 215.022 19.68 218.702 19.68V17.36C218.702 16.1067 218.409 15.2133 217.822 14.68C217.236 14.1467 216.289 13.88 214.982 13.88C212.956 13.88 211.942 14.44 211.942 15.56C211.942 15.7733 211.996 16.0267 212.102 16.32C212.236 16.5867 212.302 16.84 212.302 17.08C212.302 17.5333 212.156 17.88 211.862 18.12C211.569 18.3333 211.196 18.44 210.742 18.44C210.182 18.44 209.742 18.2667 209.422 17.92C209.129 17.5733 208.982 17.12 208.982 16.56C208.982 15.44 209.569 14.5333 210.742 13.84C211.916 13.1467 213.489 12.8 215.462 12.8C219.916 12.8 222.142 14.68 222.142 18.44V28.28C222.142 28.7867 222.316 29.04 222.662 29.04L224.142 28.96ZM214.342 28.76C215.516 28.76 216.516 28.28 217.342 27.32C218.169 26.3333 218.622 25.0667 218.702 23.52V20.76C216.196 20.76 214.396 21.1333 213.302 21.88C212.209 22.6 211.662 23.76 211.662 25.36C211.662 26.48 211.889 27.3333 212.342 27.92C212.822 28.48 213.489 28.76 214.342 28.76ZM244.63 13.2V14.24L242.99 14.16H242.91C242.483 14.16 242.15 14.4133 241.91 14.92L233.47 35.28C232.83 36.8533 232.15 37.96 231.43 38.6C230.71 39.24 229.817 39.56 228.75 39.56C228.03 39.56 227.417 39.3867 226.91 39.04C226.43 38.6933 226.163 38.2133 226.11 37.6C226.11 36.9333 226.257 36.4267 226.55 36.08C226.87 35.7333 227.243 35.56 227.67 35.56C228.07 35.56 228.377 35.64 228.59 35.8C228.803 35.9867 229.003 36.2267 229.19 36.52C229.217 36.5733 229.283 36.6667 229.39 36.8C229.497 36.96 229.617 37.0667 229.75 37.12C229.883 37.2 230.03 37.24 230.19 37.24C230.51 37.24 230.83 37.08 231.15 36.76C231.497 36.4667 231.79 36.0133 232.03 35.4L234.35 29.84L227.43 14.68C227.27 14.3333 227.057 14.16 226.79 14.16L224.83 14.24V13.2H233.59V14.24L231.79 14.16C231.603 14.16 231.457 14.24 231.35 14.4C231.243 14.5333 231.23 14.68 231.31 14.84L236.19 25.56L240.71 14.76C240.737 14.7067 240.75 14.6267 240.75 14.52C240.75 14.28 240.603 14.16 240.31 14.16L238.43 14.24V13.2H244.63Z" fill="black"/>
</svg>
