<svg width="22" height="21" viewBox="0 0 22 21" fill="none" xmlns="http://www.w3.org/2000/svg">
<path d="M16 16.0001V14.0001H16.5C17.077 14 17.6451 13.8572 18.1536 13.5845C18.6622 13.3118 19.0954 12.9176 19.4147 12.437C19.734 11.9564 19.9296 11.4042 19.9839 10.8298C20.0383 10.2553 19.9498 9.67629 19.7262 9.1443C19.5027 8.61232 19.1511 8.14385 18.7028 7.7806C18.2544 7.41735 17.7232 7.17059 17.1564 7.06228C16.5897 6.95398 16.0049 6.98748 15.4542 7.15982C14.9035 7.33216 14.4039 7.63799 14 8.05008V8.00008C13.9996 6.90018 13.6969 5.82155 13.1249 4.88207C12.5529 3.94258 11.7337 3.17841 10.7568 2.67304C9.77985 2.16768 8.68281 1.94058 7.58553 2.01656C6.48826 2.09254 5.43298 2.46868 4.53503 3.10386C3.63708 3.73905 2.931 4.60885 2.49397 5.6182C2.05694 6.62755 1.90577 7.73761 2.05697 8.82707C2.20818 9.91653 2.65595 10.9435 3.35135 11.7956C4.04674 12.6478 4.96301 13.2924 6.00001 13.6591V15.7481C4.67372 15.4049 3.45778 14.7268 2.46871 13.7789C1.47963 12.831 0.750552 11.645 0.35133 10.3344C-0.0478918 9.02393 -0.103881 7.63285 0.188727 6.29449C0.481334 4.95612 1.11273 3.71533 2.02243 2.69098C2.93212 1.66664 4.08963 0.893068 5.38405 0.44439C6.67847 -0.00428864 8.06642 -0.11304 9.41492 0.128556C10.7634 0.370151 12.0273 0.953998 13.0854 1.82416C14.1436 2.69431 14.9605 3.82162 15.458 5.09808C16.2101 4.95419 16.9839 4.9689 17.7299 5.14129C18.4759 5.31368 19.1777 5.63994 19.7904 6.09918C20.4031 6.55843 20.9131 7.14054 21.2879 7.80825C21.6626 8.47597 21.8938 9.21457 21.9667 9.97679C22.0395 10.739 21.9524 11.508 21.7109 12.2346C21.4694 12.9613 21.0789 13.6294 20.5643 14.1964C20.0497 14.7634 19.4224 15.2167 18.7226 15.5273C18.0227 15.8379 17.2657 15.9989 16.5 16.0001L16 16.0011V16.0001ZM8.00001 14.0001H10V18.0001H8.00001V14.0001ZM12 17.0001H14V21.0001H12V17.0001Z" fill="#3E3E3E"/>
</svg>
