<svg width="104" height="24" viewBox="0 0 104 24" fill="none" xmlns="http://www.w3.org/2000/svg">
<g clip-path="url(#clip0_829_19)">
<path d="M12 18C10.4087 18 8.88258 17.3679 7.75736 16.2426C6.63214 15.1174 6 13.5913 6 12C6 10.4087 6.63214 8.88258 7.75736 7.75736C8.88258 6.63214 10.4087 6 12 6C13.5913 6 15.1174 6.63214 16.2426 7.75736C17.3679 8.88258 18 10.4087 18 12C18 13.5913 17.3679 15.1174 16.2426 16.2426C15.1174 17.3679 13.5913 18 12 18ZM12 16C13.0609 16 14.0783 15.5786 14.8284 14.8284C15.5786 14.0783 16 13.0609 16 12C16 10.9391 15.5786 9.92172 14.8284 9.17157C14.0783 8.42143 13.0609 8 12 8C10.9391 8 9.92172 8.42143 9.17157 9.17157C8.42143 9.92172 8 10.9391 8 12C8 13.0609 8.42143 14.0783 9.17157 14.8284C9.92172 15.5786 10.9391 16 12 16ZM11 1H13V4H11V1ZM11 20H13V23H11V20ZM3.515 4.929L4.929 3.515L7.05 5.636L5.636 7.05L3.515 4.93V4.929ZM16.95 18.364L18.364 16.95L20.485 19.071L19.071 20.485L16.95 18.364ZM19.071 3.514L20.485 4.929L18.364 7.05L16.95 5.636L19.071 3.515V3.514ZM5.636 16.95L7.05 18.364L4.929 20.485L3.515 19.071L5.636 16.95ZM23 11V13H20V11H23ZM4 11V13H1V11H4Z" fill="#3E3E3E"/>
</g>
<g clip-path="url(#clip1_829_19)">
<path d="M53 9H61L51 24V15H44L53 0V9ZM51 11V7.22L47.532 13H53V17.394L57.263 11H51Z" fill="#3E3E3E"/>
</g>
<g clip-path="url(#clip2_829_19)">
<path d="M97 18.0001V16.0001H97.5C98.077 16 98.6451 15.8572 99.1536 15.5845C99.6622 15.3118 100.095 14.9176 100.415 14.437C100.734 13.9564 100.93 13.4042 100.984 12.8298C101.038 12.2553 100.95 11.6763 100.726 11.1443C100.503 10.6123 100.151 10.1438 99.7028 9.7806C99.2544 9.41735 98.7232 9.17059 98.1564 9.06228C97.5897 8.95398 97.0049 8.98748 96.4542 9.15982C95.9035 9.33216 95.4039 9.63799 95 10.0501V10.0001C94.9996 8.90018 94.6969 7.82155 94.1249 6.88207C93.5529 5.94258 92.7337 5.17841 91.7568 4.67304C90.7799 4.16768 89.6828 3.94058 88.5855 4.01656C87.4883 4.09254 86.433 4.46868 85.535 5.10386C84.6371 5.73905 83.931 6.60885 83.494 7.6182C83.0569 8.62755 82.9058 9.73761 83.057 10.8271C83.2082 11.9165 83.656 12.9435 84.3513 13.7956C85.0467 14.6478 85.963 15.2924 87 15.6591V17.7481C85.6737 17.4049 84.4578 16.7268 83.4687 15.7789C82.4796 14.831 81.7506 13.645 81.3513 12.3344C80.9521 11.0239 80.8961 9.63285 81.1887 8.29449C81.4813 6.95612 82.1127 5.71533 83.0224 4.69098C83.9321 3.66664 85.0896 2.89307 86.3841 2.44439C87.6785 1.99571 89.0664 1.88696 90.4149 2.12856C91.7634 2.37015 93.0273 2.954 94.0854 3.82416C95.1436 4.69431 95.9605 5.82162 96.458 7.09808C97.2101 6.95419 97.9839 6.9689 98.7299 7.14129C99.4759 7.31368 100.178 7.63994 100.79 8.09918C101.403 8.55843 101.913 9.14054 102.288 9.80825C102.663 10.476 102.894 11.2146 102.967 11.9768C103.04 12.739 102.952 13.508 102.711 14.2346C102.469 14.9613 102.079 15.6294 101.564 16.1964C101.05 16.7634 100.422 17.2167 99.7226 17.5273C99.0227 17.8379 98.2657 17.9989 97.5 18.0001L97 18.0011V18.0001ZM89 16.0001H91V20.0001H89V16.0001ZM93 19.0001H95V23.0001H93V19.0001Z" fill="#3E3E3E"/>
</g>
<defs>
<clipPath id="clip0_829_19">
<rect width="24" height="24" fill="white"/>
</clipPath>
<clipPath id="clip1_829_19">
<rect width="24" height="24" fill="white" transform="translate(40)"/>
</clipPath>
<clipPath id="clip2_829_19">
<rect width="24" height="24" fill="white" transform="translate(80)"/>
</clipPath>
</defs>
</svg>
