<svg width="64" height="64" viewBox="0 0 64 64" fill="none" xmlns="http://www.w3.org/2000/svg">
<path d="M18 30H12V28H18V30Z" fill="gray"/>
<path d="M12 24H18V22H12V24Z" fill="gray"/>
<path d="M31 24H25V22H31V24Z" fill="gray"/>
<path d="M25 30H31V28H25V30Z" fill="gray"/>
<path d="M31 37H25V35H31V37Z" fill="gray"/>
<path d="M37 24H43V22H37V24Z" fill="gray"/>
<path d="M43 30H37V28H43V30Z" fill="gray"/>
<path d="M12 37H18V35H12V37Z" fill="gray"/>
<path d="M47.1056 46.2111L48 48L51 53L52.715 51.971L49.7941 47.1029L54 45L53.1056 43.2111L47.1056 46.2111Z" fill="gray"/>
<path fill-rule="evenodd" clip-rule="evenodd" d="M12 6V4H14V6H19V4H21V6H34V4H36V6H41V4H43V6H51V34.1529C57.2302 35.1149 62 40.5004 62 47C62 54.1797 56.1797 60 49 60C41.8203 60 36 54.1797 36 47C36 45.9675 36.1204 44.963 36.3479 44H3V6H12ZM12 8H5V14H49V8H43V12H41V8H36V12H34V8H21V12H19V8H14V12H12V8ZM49 17H5V42H36.9963C38.9554 37.3021 43.5921 34 49 34V17ZM59.9552 48H56V46H59.9552C59.4499 40.3935 54.738 36 49 36C43.262 36 38.5501 40.3935 38.0448 46H42V48H38.0448C38.5204 53.2771 42.7229 57.4796 48 57.9552V54H50V57.9552C55.2771 57.4796 59.4796 53.2771 59.9552 48Z" fill="gray"/>
</svg>
